<svg id="Layer_1" data-name="Layer 1" xmlns="http://www.w3.org/2000/svg" viewBox="0 0 42.68 42.47"><path d="M138,131.39c1.09-3.64,3.06-6.82,4.6-10.42l-10.87-4v-.52c3.42-1.71,7.26-2.46,10.83-4.14-1.65-3.47-3.24-6.84-4.83-10.21l.32-.42a15.66,15.66,0,0,1,1.94.62c2.55,1.18,5.07,2.4,7.61,3.59.3.14.62.23,1.06.39,1.36-3.61,2.7-7.13,4-10.65h.55c1.61,3.4,2.51,7.09,4.16,10.7l10.38-4.82.4.4c-1.25,3.54-3.2,6.8-4.79,10.48l11,3.93.05.45c-3.44,1.78-7.34,2.52-11,4.35,1.62,3.42,3.21,6.78,5,10.48-2.4-.28-4-1.39-5.67-2.15s-3.45-1.62-5.39-2.55c-1.38,3.68-2.71,7.21-4.2,11.19-1.39-2-1.73-3.89-2.42-5.66s-1.37-3.54-2.1-5.46C144.94,128.32,141.76,130.48,138,131.39Z" transform="translate(-131.68 -95.59)" fill="#16c2d9"/></svg>