<svg xmlns="http://www.w3.org/2000/svg" version="1.0" preserveAspectRatio="xMidYMid meet" viewBox="41.13 40.32 757.87 899.23">

<g transform="translate(0.000000,980.000000) scale(0.100000,-0.100000)" fill="#000000" stroke="none">
<path d="M5510 9389 c-93 -14 -233 -63 -320 -112 -103 -58 -258 -213 -321 -322 -127 -217 -172 -400 -209 -840 -24 -284 -31 -552 -40 -1415 -5 -503 -14 -994 -20 -1090 -13 -230 -28 -383 -38 -391 -4 -3 -158 -11 -342 -18 -438 -16 -1367 -56 -1895 -82 -231 -11 -485 -21 -565 -22 l-145 -2 -7 320 c-13 678 -65 965 -200 1111 -55 60 -125 92 -229 105 -246 30 -402 -76 -464 -316 -30 -118 -35 -216 -42 -741 l-6 -531 -61 -6 c-81 -8 -133 -24 -156 -47 -46 -46 -53 -209 -10 -255 22 -23 98 -49 183 -61 l49 -7 -3 -606 c-2 -525 0 -616 14 -678 45 -203 154 -302 367 -334 244 -37 391 75 474 364 56 191 86 530 86 953 0 128 4 235 9 238 5 3 330 -14 722 -39 876 -55 1110 -68 1733 -100 269 -14 491 -26 492 -28 6 -6 23 -224 34 -427 6 -113 15 -560 20 -995 9 -778 15 -942 45 -1240 90 -880 369 -1307 894 -1365 194 -21 429 19 571 97 166 92 282 275 334 529 25 119 35 266 41 614 10 616 25 1076 55 1650 18 339 59 964 65 996 l5 22 367 -6 c585 -8 775 25 916 157 76 71 77 74 77 293 l0 193 -38 50 c-73 98 -214 167 -409 200 -129 22 -384 35 -670 35 l-253 0 0 163 c0 168 -12 454 -55 1272 -42 807 -55 1134 -61 1540 -5 397 -13 510 -40 623 -69 279 -248 463 -519 533 -94 24 -331 34 -435 18z"/>
</g>
</svg>