<?xml version="1.0" encoding="UTF-8"?>
<svg version="1.1" xmlns="http://www.w3.org/2000/svg" width="500" height="500">
<path d="M0 0 C12.21 0 24.42 0 37 0 C37.99 3.96 38.98 7.92 40 12 C43.2089434 23.66888509 48.15589995 34.46527139 53.296875 45.3828125 C59.65097495 58.87798809 59.65097495 58.87798809 62.1796875 65.8828125 C64.17356003 71.02890255 66.53216971 76.06433942 69 81 C68.9278125 80.40574219 68.855625 79.81148438 68.78125 79.19921875 C68.06182721 72.77437359 67.88944165 66.46152127 68 60 C70.64 60 73.28 60 76 60 C84.05322129 105.42016807 84.05322129 105.42016807 79 113 C75.375 113.1875 75.375 113.1875 72 113 C71.67 111.02 71.34 109.04 71 107 C68.03 107 65.06 107 62 107 C62.19698486 107.83080078 62.39396973 108.66160156 62.59692383 109.51757812 C64.63452889 118.49376794 65.84676109 127.32997343 66.6875 136.5 C66.81768648 137.83079516 66.94854398 139.16152486 67.08007812 140.4921875 C68.30517958 153.27472757 68.30517958 153.27472757 68 157 C64.77208445 159.1519437 63.71599191 159.20086443 60 159 C60.33 160.32 60.66 161.64 61 163 C63.31 163.66 65.62 164.32 68 165 C68 167.97 68 170.94 68 174 C58.51776039 178.53040337 58.51776039 178.53040337 53 179 C52.00806641 179.09474609 52.00806641 179.09474609 50.99609375 179.19140625 C47.37217827 179.39829645 45.48507848 179.39572192 42.625 177.0625 C42.08875 176.381875 41.5525 175.70125 41 175 C40.34 174.67 39.68 174.34 39 174 C38.59270772 171.67843403 38.25561323 169.3431213 38 167 C39.65 167 41.3 167 43 167 C42.91621094 166.34515625 42.83242188 165.6903125 42.74609375 165.015625 C41.94779314 157.86123477 42.18952886 151.14461481 43 144 C40.36 144 37.72 144 35 144 C35.495 147.465 35.495 147.465 36 151 C32.50457771 153.33028153 31.10380829 153.24611853 26.9765625 153.23046875 C25.790625 153.22853516 24.6046875 153.22660156 23.3828125 153.22460938 C21.52269531 153.20624023 21.52269531 153.20624023 19.625 153.1875 C18.39265625 153.18685547 17.1603125 153.18621094 15.890625 153.18554688 C5.8928475 153.13675078 5.8928475 153.13675078 1 152 C1.495 148.04 1.495 148.04 2 144 C-0.31 144 -2.62 144 -5 144 C-4.98839844 144.90621094 -4.97679687 145.81242188 -4.96484375 146.74609375 C-4.91411085 153.59503464 -5.06398731 160.213908 -6 167 C-4.35 167 -2.7 167 -1 167 C-1.33 169.31 -1.66 171.62 -2 174 C-3.4540625 174.4021875 -3.4540625 174.4021875 -4.9375 174.8125 C-6.4534375 175.4003125 -6.4534375 175.4003125 -8 176 C-8.33 176.99 -8.66 177.98 -9 179 C-13.89445512 179.1957782 -17.40668965 178.59359747 -22 177 C-23.43417974 176.80683557 -24.87225098 176.64094964 -26.3125 176.5 C-27.529375 176.335 -28.74625 176.17 -30 176 C-31.20272819 173.59454362 -31.10071472 172.05003047 -31.0625 169.375 C-31.05347656 168.55773437 -31.04445312 167.74046875 -31.03515625 166.8984375 C-31.02355469 166.27195312 -31.01195312 165.64546875 -31 165 C-28.69 164.67 -26.38 164.34 -24 164 C-23.67 162.35 -23.34 160.7 -23 159 C-24.7015625 159.0309375 -24.7015625 159.0309375 -26.4375 159.0625 C-30 159 -30 159 -31 158 C-31.04133256 156.40539369 -31.01025604 154.80881744 -30.94921875 153.21484375 C-30.91135254 152.21670654 -30.87348633 151.21856934 -30.83447266 150.19018555 C-30.78597168 149.11679932 -30.7374707 148.04341309 -30.6875 146.9375 C-30.63899902 145.84800049 -30.59049805 144.75850098 -30.54052734 143.63598633 C-29.92616238 131.06192163 -28.6964564 119.09749367 -25 107 C-28.3 107 -31.6 107 -35 107 C-35.33 108.98 -35.66 110.96 -36 113 C-38.31 113 -40.62 113 -43 113 C-47.96874015 97.17215838 -42.68378896 75.63207839 -39 60 C-36.36 60 -33.72 60 -31 60 C-30.86189779 67.04321257 -31.4011085 73.98441385 -32 81 C-31.5978125 80.01386719 -31.5978125 80.01386719 -31.1875 79.0078125 C-28.18336016 71.71486775 -25.02504501 64.50397192 -21.76757812 57.32080078 C-19.94473215 53.26755472 -18.31670604 49.25397336 -17 45 C-16.34 45 -15.68 45 -15 45 C-14.88011719 44.29875 -14.76023438 43.5975 -14.63671875 42.875 C-12.68644649 34.06886266 -8.53529099 25.73209249 -4.4296875 17.75390625 C-2.25882551 12.05391071 -1.27800019 5.96400088 0 0 Z M-35 96 C-35 98.97 -35 101.94 -35 105 C-34.67 105 -34.34 105 -34 105 C-34 102.03 -34 99.06 -34 96 C-34.33 96 -34.66 96 -35 96 Z " fill="#060606" transform="translate(233,162)"/>
</svg>
