<?xml version="1.0" encoding="UTF-8"?>
<svg version="1.1" xmlns="http://www.w3.org/2000/svg" width="360" height="197">
<path d="M0 0 C118.8 0 237.6 0 360 0 C360 65.01 360 130.02 360 197 C241.2 197 122.4 197 0 197 C0 131.99 0 66.98 0 0 Z " fill="#FAFAFA" transform="translate(0,0)"/>
<path d="M0 0 C59.4 0 118.8 0 180 0 C180 65.01 180 130.02 180 197 C61.2 197 -57.6 197 -180 197 C-180 191.39 -180 185.78 -180 180 C-175.05 180 -170.1 180 -165 180 C-165 184.95 -165 189.9 -165 195 C-160.05 195 -155.1 195 -150 195 C-150 190.05 -150 185.1 -150 180 C-145.05 180 -140.1 180 -135 180 C-135 184.95 -135 189.9 -135 195 C-130.05 195 -125.1 195 -120 195 C-120 190.05 -120 185.1 -120 180 C-115.05 180 -110.1 180 -105 180 C-105 184.95 -105 189.9 -105 195 C-100.05 195 -95.1 195 -90 195 C-90 190.05 -90 185.1 -90 180 C-85.05 180 -80.1 180 -75 180 C-75 184.95 -75 189.9 -75 195 C-70.05 195 -65.1 195 -60 195 C-60 190.05 -60 185.1 -60 180 C-55.05 180 -50.1 180 -45 180 C-45 175.05 -45 170.1 -45 165 C-40.05 164.67 -35.1 164.34 -30 164 C-29.67 162.35 -29.34 160.7 -29 159 C-28.55914062 159.64839844 -28.11828125 160.29679688 -27.6640625 160.96484375 C-23.55428073 164.10442777 -19.41063308 163.55911584 -14.375 163.5625 C-12.46603828 163.57140849 -10.55708077 163.59291926 -8.6484375 163.62890625 C-7.38265869 163.6299939 -7.38265869 163.6299939 -6.09130859 163.63110352 C-5.40117676 163.75283936 -4.71104492 163.8745752 -4 164 C-3.34 164.99 -2.68 165.98 -2 167 C-1.01 167.33 -0.02 167.66 1 168 C0.67 171.96 0.34 175.92 0 180 C4.95 180 9.9 180 15 180 C15 184.95 15 189.9 15 195 C19.95 195 24.9 195 30 195 C30 190.05 30 185.1 30 180 C34.95 180 39.9 180 45 180 C45 184.95 45 189.9 45 195 C49.95 195 54.9 195 60 195 C60 190.05 60 185.1 60 180 C64.95 180 69.9 180 75 180 C75 184.95 75 189.9 75 195 C79.95 195 84.9 195 90 195 C90 190.05 90 185.1 90 180 C94.95 180 99.9 180 105 180 C105 184.95 105 189.9 105 195 C109.95 195 114.9 195 120 195 C120 190.05 120 185.1 120 180 C124.95 180 129.9 180 135 180 C135 184.95 135 189.9 135 195 C139.95 195 144.9 195 150 195 C150 180.15 150 165.3 150 150 C145.05 150 140.1 150 135 150 C135 145.05 135 140.1 135 135 C130.05 135 125.1 135 120 135 C120 130.05 120 125.1 120 120 C115.05 120 110.1 120 105 120 C105 115.05 105 110.1 105 105 C100.05 105 95.1 105 90 105 C90 100.05 90 95.1 90 90 C94.95 90 99.9 90 105 90 C105 89.01 105 88.02 105 87 C103.68 86.67 102.36 86.34 101 86 C102.64959337 84.35040663 104.72995571 84.79784938 107 84.6875 C112.45215317 84.21773223 117.52298843 83.33438681 122 80 C123.21790719 76.883975 123.21790719 76.883975 123 74 C119.54674616 71.69783077 116.76255262 71.35794041 112.75 70.9375 C111.99146729 70.85443604 111.23293457 70.77137207 110.45141602 70.68579102 C100.96487736 69.75318494 91.42821526 69.56352506 81.90332031 69.34155273 C75.20616281 69.17661266 68.64288614 68.8803825 62 68 C62 63.71 62 59.42 62 55 C60.35 55 58.7 55 57 55 C56.67 53.68 56.34 52.36 56 51 C55.67 51.99 55.34 52.98 55 54 C54.01 54.33 53.02 54.66 52 55 C51.67 58.96 51.34 62.92 51 67 C47.52078265 67.02683201 44.04176961 67.0467567 40.5625 67.0625 C39.07266602 67.07506836 39.07266602 67.07506836 37.55273438 67.08789062 C36.13637695 67.09272461 36.13637695 67.09272461 34.69140625 67.09765625 C33.81685791 67.10289307 32.94230957 67.10812988 32.04125977 67.11352539 C30 67 30 67 29 66 C28.92728259 63.64686445 28.91629132 61.29166332 28.9375 58.9375 C28.94652344 57.64714844 28.95554688 56.35679688 28.96484375 55.02734375 C28.98224609 53.52880859 28.98224609 53.52880859 29 52 C27.68 52 26.36 52 25 52 C24.67 50.68 24.34 49.36 24 48 C23.67 49.32 23.34 50.64 23 52 C21.35 52 19.7 52 18 52 C18 56.29 18 60.58 18 65 C15.03 65 12.06 65 9 65 C8.98582031 63.95328125 8.97164062 62.9065625 8.95703125 61.828125 C8.55258111 46.94738079 5.84822824 32.58324242 3 18 C1.35 17.67 -0.3 17.34 -2 17 C-4.09448302 22.53541942 -5.02782755 28.18764979 -6 34 C-6.33 32.68 -6.66 31.36 -7 30 C-9.64 30 -12.28 30 -15 30 C-15 25.05 -15 20.1 -15 15 C-10.05 15 -5.1 15 0 15 C0 10.05 0 5.1 0 0 Z " fill="#FBFBFB" transform="translate(180,0)"/>
<path d="M0 0 C2.5 0.0625 2.5 0.0625 5 1 C7.47776745 6.09880339 8.1879915 11.58291636 9.125 17.125 C9.30385742 18.18074219 9.48271484 19.23648438 9.66699219 20.32421875 C11.18574837 29.94011507 11.41209125 39.29296176 11 49 C13.97 49 16.94 49 20 49 C20 44.71 20 40.42 20 36 C21.65 36 23.3 36 25 36 C25 34.35 25 32.7 25 31 C25.66 31.33 26.32 31.66 27 32 C27 33.32 27 34.64 27 36 C28.32 36 29.64 36 31 36 C31.33 40.62 31.66 45.24 32 50 C38.93 50.33 45.86 50.66 53 51 C53 47.04 53 43.08 53 39 C54.32 38.67 55.64 38.34 57 38 C57.33 36.68 57.66 35.36 58 34 C58.66 34.33 59.32 34.66 60 35 C60 35.99 60 36.98 60 38 C61.32 38.33 62.64 38.66 64 39 C64 43.29 64 47.58 64 52 C65.67618408 52.029729 65.67618408 52.029729 67.38623047 52.06005859 C71.62470037 52.13747068 75.8628856 52.22594886 80.10107422 52.31738281 C81.9180734 52.35512369 83.7351335 52.39005979 85.55224609 52.421875 C95.08635886 52.59071374 104.57835895 52.89751855 114.0703125 53.8515625 C114.81368866 53.91926849 115.55706482 53.98697449 116.32296753 54.05673218 C120.36183843 54.51007904 123.01840167 55.16936868 126 58 C126.125 60.6875 126.125 60.6875 125 64 C118.7401573 68.84881258 111.71090398 69.83874535 104 70 C104.99 70.33 105.98 70.66 107 71 C107 71.99 107 72.98 107 74 C102.05 74 97.1 74 92 74 C92 78.95 92 83.9 92 89 C96.95 89 101.9 89 107 89 C107 93.95 107 98.9 107 104 C111.95 104 116.9 104 122 104 C122 108.95 122 113.9 122 119 C126.95 119 131.9 119 137 119 C137 123.95 137 128.9 137 134 C141.95 134 146.9 134 152 134 C152 148.85 152 163.7 152 179 C147.05 179 142.1 179 137 179 C137 174.05 137 169.1 137 164 C132.05 164 127.1 164 122 164 C122 168.95 122 173.9 122 179 C117.05 179 112.1 179 107 179 C107 174.05 107 169.1 107 164 C102.05 164 97.1 164 92 164 C92 168.95 92 173.9 92 179 C87.05 179 82.1 179 77 179 C77 174.05 77 169.1 77 164 C72.05 164 67.1 164 62 164 C62 168.95 62 173.9 62 179 C57.05 179 52.1 179 47 179 C47 174.05 47 169.1 47 164 C42.05 164 37.1 164 32 164 C32 168.95 32 173.9 32 179 C27.05 179 22.1 179 17 179 C17 174.05 17 169.1 17 164 C12.05 164 7.1 164 2 164 C1.875 154.25 1.875 154.25 3 152 C2.0409375 151.814375 2.0409375 151.814375 1.0625 151.625 C0.381875 151.41875 -0.29875 151.2125 -1 151 C-1.33 150.34 -1.66 149.68 -2 149 C-2.93066284 148.97812622 -2.93066284 148.97812622 -3.88012695 148.95581055 C-6.69154633 148.88133412 -9.50177749 148.78467436 -12.3125 148.6875 C-13.77719727 148.65366211 -13.77719727 148.65366211 -15.27148438 148.61914062 C-16.20927734 148.58369141 -17.14707031 148.54824219 -18.11328125 148.51171875 C-18.97735596 148.48553467 -19.84143066 148.45935059 -20.73168945 148.43237305 C-23.40213987 147.92334628 -24.31011183 147.07670092 -26 145 C-26.66 146.32 -27.32 147.64 -28 149 C-28 142.07 -28 135.14 -28 128 C-27.67 128.66 -27.34 129.32 -27 130 C-19.08 130 -11.16 130 -3 130 C-3.33 129.34 -3.66 128.68 -4 128 C-4.51285178 123.34767158 -4.7619924 118.6704411 -5.0625 114 C-5.10735535 113.32370544 -5.15221069 112.64741089 -5.19842529 111.95062256 C-5.90039354 101.28279875 -6.19271387 90.69109272 -6 80 C-6.9610817 79.94843246 -7.92216339 79.89686493 -8.91236877 79.84373474 C-18.88953152 79.28069196 -28.78745751 78.35163167 -38.71484375 77.22265625 C-40.26547167 77.04918952 -41.81613685 76.87605566 -43.36683655 76.70323181 C-47.40634944 76.25208713 -51.44531945 75.79625425 -55.48419189 75.3394165 C-58.74583118 74.97125983 -62.0078312 74.60636358 -65.26985836 74.24166203 C-83.00956296 72.25827897 -83.00956296 72.25827897 -87.77056789 71.70787144 C-91.37240272 71.29165972 -94.97463347 70.89935139 -98.58279419 70.54171753 C-99.34117112 70.46247008 -100.09954805 70.38322264 -100.88090611 70.30157375 C-102.31899515 70.15132839 -103.75798166 70.00932521 -105.19788265 69.87757206 C-111.04975892 69.24817433 -115.76379875 67.67715093 -120.5 64.125 C-122 62 -122 62 -122.0625 59.4375 C-120.61579837 56.11859626 -119.27598074 55.5338438 -116 54 C-113.11627374 53.48573727 -110.24828451 53.37297293 -107.32421875 53.26953125 C-106.48139847 53.229384 -105.63857819 53.18923676 -104.7702179 53.14787292 C-102.07637747 53.02323127 -99.3821493 52.91802574 -96.6875 52.8125 C-94.91856509 52.73099645 -93.14968359 52.64832472 -91.38085938 52.56445312 C-80.91426224 52.08861597 -70.47715042 51.89206422 -60 52 C-60 47.71 -60 43.42 -60 39 C-58.02 38.505 -58.02 38.505 -56 38 C-55.67 36.68 -55.34 35.36 -55 34 C-54.34 34.33 -53.68 34.66 -53 35 C-53 35.99 -53 36.98 -53 38 C-51.02 38.495 -51.02 38.495 -49 39 C-49 42.96 -49 46.92 -49 51 C-38.605 50.505 -38.605 50.505 -28 50 C-27.67 45.05 -27.34 40.1 -27 35 C-25.68 35 -24.36 35 -23 35 C-22.67 33.68 -22.34 32.36 -22 31 C-21.34 31.33 -20.68 31.66 -20 32 C-20 33.32 -20 34.64 -20 36 C-18.68 36 -17.36 36 -16 36 C-16 40.62 -16 45.24 -16 50 C-11.545 49.505 -11.545 49.505 -7 49 C-6.9906543 48.35788574 -6.98130859 47.71577148 -6.97167969 47.05419922 C-6.75491653 35.08759811 -6.22793091 23.3536078 -4.0625 11.5625 C-3.80774902 10.16136963 -3.80774902 10.16136963 -3.54785156 8.73193359 C-2.27635282 2.27635282 -2.27635282 2.27635282 0 0 Z " fill="#F6F6F6" transform="translate(178,16)"/>
<path d="M0 0 C2.5 0.0625 2.5 0.0625 5 1 C7.47776745 6.09880339 8.1879915 11.58291636 9.125 17.125 C9.30385742 18.18074219 9.48271484 19.23648438 9.66699219 20.32421875 C11.18574837 29.94011507 11.41209125 39.29296176 11 49 C13.97 49 16.94 49 20 49 C20 44.71 20 40.42 20 36 C21.65 36 23.3 36 25 36 C25 34.35 25 32.7 25 31 C25.66 31.33 26.32 31.66 27 32 C27 33.32 27 34.64 27 36 C28.32 36 29.64 36 31 36 C31.33 40.62 31.66 45.24 32 50 C38.93 50.33 45.86 50.66 53 51 C53 47.04 53 43.08 53 39 C54.32 38.67 55.64 38.34 57 38 C57.33 36.68 57.66 35.36 58 34 C58.66 34.33 59.32 34.66 60 35 C60 35.99 60 36.98 60 38 C61.32 38.33 62.64 38.66 64 39 C64 43.29 64 47.58 64 52 C65.67618408 52.029729 65.67618408 52.029729 67.38623047 52.06005859 C71.62470037 52.13747068 75.8628856 52.22594886 80.10107422 52.31738281 C81.9180734 52.35512369 83.7351335 52.39005979 85.55224609 52.421875 C95.08635886 52.59071374 104.57835895 52.89751855 114.0703125 53.8515625 C114.81368866 53.91926849 115.55706482 53.98697449 116.32296753 54.05673218 C120.36183843 54.51007904 123.01840167 55.16936868 126 58 C126.125 60.6875 126.125 60.6875 125 64 C118.76690602 68.38949419 112.10437918 69.87668608 104.65673828 70.57739258 C103.67659256 70.68541199 102.69644684 70.7934314 101.68659973 70.90472412 C98.48283806 71.25314974 95.27698612 71.57411747 92.0703125 71.89453125 C89.82956852 72.13237503 87.58900011 72.37187809 85.34860229 72.61296082 C79.47636318 73.24010703 73.60192667 73.84363932 67.72674561 74.44250488 C61.73808429 75.05769976 55.75204741 75.69744197 49.765625 76.33398438 C41.03391427 77.25745076 32.30166086 78.17543264 23.56689453 79.06958008 C22.65256149 79.16458298 21.73822845 79.25958588 20.79618835 79.35746765 C19.95531174 79.44279755 19.11443512 79.52812744 18.24807739 79.61604309 C17.15587733 79.72797863 17.15587733 79.72797863 16.04161263 79.84217548 C14.03304727 79.99744532 12.0145579 80 10 80 C10.02320313 81.01191406 10.04640625 82.02382812 10.0703125 83.06640625 C10.30191117 98.76264436 9.11964749 114.3549257 8 130 C15.59 130 23.18 130 31 130 C31.33 129.34 31.66 128.68 32 128 C32 134.6 32 141.2 32 148 C31.34 147.01 30.68 146.02 30 145 C29.60578857 145.4844458 29.21157715 145.9688916 28.80541992 146.46801758 C26.47926837 148.44186491 25.1357377 148.42012916 22.11328125 148.51171875 C21.17548828 148.54716797 20.23769531 148.58261719 19.27148438 148.61914062 C18.29501953 148.64169922 17.31855469 148.66425781 16.3125 148.6875 C15.32443359 148.72166016 14.33636719 148.75582031 13.31835938 148.79101562 C10.87901947 148.87350538 8.44003937 148.94265068 6 149 C5.67 149.99 5.34 150.98 5 152 C2.625 152.1875 2.625 152.1875 0 152 C-0.66 151.01 -1.32 150.02 -2 149 C-4.17262007 148.54107602 -4.17262007 148.54107602 -6.68359375 148.59375 C-7.61107422 148.57183594 -8.53855469 148.54992187 -9.49414062 148.52734375 C-10.46544922 148.51832031 -11.43675781 148.50929687 -12.4375 148.5 C-14.35303618 148.48213357 -16.26850726 148.45143594 -18.18359375 148.40625 C-19.46061157 148.39561523 -19.46061157 148.39561523 -20.76342773 148.38476562 C-23.43577944 147.92503129 -24.31668404 147.07029697 -26 145 C-26.66 146.32 -27.32 147.64 -28 149 C-28 142.07 -28 135.14 -28 128 C-27.67 128.66 -27.34 129.32 -27 130 C-19.08 130 -11.16 130 -3 130 C-3.33 129.34 -3.66 128.68 -4 128 C-4.51285178 123.34767158 -4.7619924 118.6704411 -5.0625 114 C-5.10735535 113.32370544 -5.15221069 112.64741089 -5.19842529 111.95062256 C-5.90039354 101.28279875 -6.19271387 90.69109272 -6 80 C-6.9610817 79.94843246 -7.92216339 79.89686493 -8.91236877 79.84373474 C-18.88953152 79.28069196 -28.78745751 78.35163167 -38.71484375 77.22265625 C-40.26547167 77.04918952 -41.81613685 76.87605566 -43.36683655 76.70323181 C-47.40634944 76.25208713 -51.44531945 75.79625425 -55.48419189 75.3394165 C-58.74583118 74.97125983 -62.0078312 74.60636358 -65.26985836 74.24166203 C-83.00956296 72.25827897 -83.00956296 72.25827897 -87.77056789 71.70787144 C-91.37240272 71.29165972 -94.97463347 70.89935139 -98.58279419 70.54171753 C-99.34117112 70.46247008 -100.09954805 70.38322264 -100.88090611 70.30157375 C-102.31899515 70.15132839 -103.75798166 70.00932521 -105.19788265 69.87757206 C-111.04975892 69.24817433 -115.76379875 67.67715093 -120.5 64.125 C-122 62 -122 62 -122.0625 59.4375 C-120.61579837 56.11859626 -119.27598074 55.5338438 -116 54 C-113.11627374 53.48573727 -110.24828451 53.37297293 -107.32421875 53.26953125 C-106.48139847 53.229384 -105.63857819 53.18923676 -104.7702179 53.14787292 C-102.07637747 53.02323127 -99.3821493 52.91802574 -96.6875 52.8125 C-94.91856509 52.73099645 -93.14968359 52.64832472 -91.38085938 52.56445312 C-80.91426224 52.08861597 -70.47715042 51.89206422 -60 52 C-60 47.71 -60 43.42 -60 39 C-58.02 38.505 -58.02 38.505 -56 38 C-55.67 36.68 -55.34 35.36 -55 34 C-54.34 34.33 -53.68 34.66 -53 35 C-53 35.99 -53 36.98 -53 38 C-51.02 38.495 -51.02 38.495 -49 39 C-49 42.96 -49 46.92 -49 51 C-38.605 50.505 -38.605 50.505 -28 50 C-27.67 45.05 -27.34 40.1 -27 35 C-25.68 35 -24.36 35 -23 35 C-22.67 33.68 -22.34 32.36 -22 31 C-21.34 31.33 -20.68 31.66 -20 32 C-20 33.32 -20 34.64 -20 36 C-18.68 36 -17.36 36 -16 36 C-16 40.62 -16 45.24 -16 50 C-11.545 49.505 -11.545 49.505 -7 49 C-6.9906543 48.35788574 -6.98130859 47.71577148 -6.97167969 47.05419922 C-6.75491653 35.08759811 -6.22793091 23.3536078 -4.0625 11.5625 C-3.80774902 10.16136963 -3.80774902 10.16136963 -3.54785156 8.73193359 C-2.27635282 2.27635282 -2.27635282 2.27635282 0 0 Z " fill="#030303" transform="translate(178,16)"/>
<path d="M0 0 C4.95 0 9.9 0 15 0 C15 4.95 15 9.9 15 15 C19.95 15 24.9 15 30 15 C30 10.05 30 5.1 30 0 C34.95 0 39.9 0 45 0 C45 4.95 45 9.9 45 15 C49.95 15 54.9 15 60 15 C60 19.95 60 24.9 60 30 C64.95 30 69.9 30 75 30 C75 32.64 75 35.28 75 38 C71.40335372 39.19888209 68.11732124 39.14905532 64.375 39.125 C63.30282227 39.12209961 63.30282227 39.12209961 62.20898438 39.11914062 C57.07666727 39.07726315 52.08564547 38.72652078 47 38 C47 33.71 47 29.42 47 25 C45.35 25 43.7 25 42 25 C41.505 23.02 41.505 23.02 41 21 C40.505 22.485 40.505 22.485 40 24 C39.01 24.33 38.02 24.66 37 25 C36.67 28.96 36.34 32.92 36 37 C32.52078265 37.02683201 29.04176961 37.0467567 25.5625 37.0625 C24.07266602 37.07506836 24.07266602 37.07506836 22.55273438 37.08789062 C21.60849609 37.09111328 20.66425781 37.09433594 19.69140625 37.09765625 C18.81685791 37.10289307 17.94230957 37.10812988 17.04125977 37.11352539 C15 37 15 37 14 36 C13.92728259 33.64686445 13.91629132 31.29166332 13.9375 28.9375 C13.94652344 27.64714844 13.95554688 26.35679688 13.96484375 25.02734375 C13.97644531 24.02832031 13.98804688 23.02929688 14 22 C12.68 22 11.36 22 10 22 C9.67 19.69 9.34 17.38 9 15 C6.03 15 3.06 15 0 15 C0 10.05 0 5.1 0 0 Z " fill="#ECECEC" transform="translate(195,30)"/>
<path d="M0 0 C0.98873863 0.13174118 0.98873863 0.13174118 1.99745178 0.2661438 C4.11501975 0.54920599 6.23133904 0.84055802 8.34765625 1.1328125 C11.10634272 1.5084279 13.86550071 1.88040542 16.625 2.25 C17.29220062 2.33973083 17.95940125 2.42946167 18.64682007 2.52191162 C24.22269255 3.25988843 29.80340973 3.81926279 35.41015625 4.2578125 C35.41015625 4.5878125 35.41015625 4.9178125 35.41015625 5.2578125 C30.64708188 6.21042737 26.24350345 6.34114607 21.41015625 6.2578125 C21.41015625 11.2078125 21.41015625 16.1578125 21.41015625 21.2578125 C16.46015625 21.2578125 11.51015625 21.2578125 6.41015625 21.2578125 C6.41015625 16.3078125 6.41015625 11.3578125 6.41015625 6.2578125 C1.46015625 6.2578125 -3.48984375 6.2578125 -8.58984375 6.2578125 C-8.58984375 4.2778125 -8.58984375 2.2978125 -8.58984375 0.2578125 C-5.60240645 -1.23590615 -3.28840797 -0.44929905 0 0 Z " fill="#EFEFEF" transform="translate(68.58984375,83.7421875)"/>
<path d="M0 0 C2.64 0 5.28 0 8 0 C7.88205038 4.96639957 7.75782482 9.93258651 7.62768555 14.89868164 C7.58427561 16.58939299 7.54260511 18.28014991 7.50268555 19.97094727 C7.44512906 22.39613606 7.38139351 24.82109415 7.31640625 27.24609375 C7.29133751 28.38672523 7.29133751 28.38672523 7.26576233 29.55039978 C7.11387171 34.88612829 7.11387171 34.88612829 6 36 C2.99668982 36.14193337 0.00782866 36.04236378 -3 36 C-3 31.38 -3 26.76 -3 22 C-4.32 22 -5.64 22 -7 22 C-7.66 20.68 -8.32 19.36 -9 18 C-9.33 18.99 -9.66 19.98 -10 21 C-11.65 21 -13.3 21 -15 21 C-15 19.02 -15 17.04 -15 15 C-10.05 15 -5.1 15 0 15 C0 10.05 0 5.1 0 0 Z " fill="#FBFBFB" transform="translate(165,30)"/>
<path d="M0 0 C0 0.99 0 1.98 0 3 C-4.95 3 -9.9 3 -15 3 C-15 7.95 -15 12.9 -15 18 C-19.95 18 -24.9 18 -30 18 C-30.020625 15.56625 -30.04125 13.1325 -30.0625 10.625 C-30.071604 9.86010254 -30.08070801 9.09520508 -30.09008789 8.30712891 C-30.11111111 3.22222222 -30.11111111 3.22222222 -29 1 C-26.10617685 0.5167017 -23.2895566 0.15498103 -20.375 -0.125 C-19.57964844 -0.21136719 -18.78429687 -0.29773438 -17.96484375 -0.38671875 C-5.30206637 -1.69666124 -5.30206637 -1.69666124 0 0 Z " fill="#EEEEEE" transform="translate(285,87)"/>
<path d="M0 0 C4.95 0 9.9 0 15 0 C15 4.95 15 9.9 15 15 C19.62 15 24.24 15 29 15 C29 16.65 29 18.3 29 20 C29.33 20.66 29.66 21.32 30 22 C23.07 22 16.14 22 9 22 C8.67 18.04 8.34 14.08 8 10 C7.01 9.67 6.02 9.34 5 9 C4.34 8.01 3.68 7.02 3 6 C2.01 6.66 1.02 7.32 0 8 C0 5.36 0 2.72 0 0 Z " fill="#EDEDED" transform="translate(120,45)"/>
<path d="M0 0 C4.95 0 9.9 0 15 0 C15 11.88 15 23.76 15 36 C14.67 36 14.34 36 14 36 C14 31.38 14 26.76 14 22 C12.68 22 11.36 22 10 22 C9.67 19.69 9.34 17.38 9 15 C6.03 15 3.06 15 0 15 C0 10.05 0 5.1 0 0 Z " fill="#EEEEEE" transform="translate(195,30)"/>
<path d="M0 0 C0 0.33 0 0.66 0 1 C-1.65 1 -3.3 1 -5 1 C-5 5.95 -5 10.9 -5 16 C-9.95 16 -14.9 16 -20 16 C-20 11.71 -20 7.42 -20 3 C-21.32 2.67 -22.64 2.34 -24 2 C-17.17657719 -1.41171141 -7.41390432 -0.10313004 0 0 Z " fill="#FBFBFB" transform="translate(260,89)"/>
<path d="M0 0 C1.37562854 1.28965176 2.70766393 2.62689293 4 4 C4 4.66 4 5.32 4 6 C7.3 6 10.6 6 14 6 C14 10.95 14 15.9 14 21 C9.05 21 4.1 21 -1 21 C-1.14285714 6 -1.14285714 6 0 0 Z " fill="#EDEDED" transform="translate(151,159)"/>
<path d="M0 0 C0 5.28 0 10.56 0 16 C-4.95 16 -9.9 16 -15 16 C-15 11.05 -15 6.1 -15 1 C-9.81850771 0.27277301 -5.31964249 0 0 0 Z " fill="#FFFFFF" transform="translate(105,89)"/>
<path d="M0 0 C5.61 0.33 11.22 0.66 17 1 C16.34 1.66 15.68 2.32 15 3 C14.75639927 6.12814514 14.75639927 6.12814514 14.875 9.625 C14.91625 11.72875 14.9575 13.8325 15 16 C10.05 16 5.1 16 0 16 C0 10.72 0 5.44 0 0 Z " fill="#ECECEC" transform="translate(105,89)"/>
<path d="M0 0 C0.33 0.66 0.66 1.32 1 2 C5.29 2 9.58 2 14 2 C14 6.95 14 11.9 14 17 C8.72 17 3.44 17 -2 17 C-1.855625 14.56625 -1.71125 12.1325 -1.5625 9.625 C-1.51939697 8.86010254 -1.47629395 8.09520508 -1.43188477 7.30712891 C-1.11111111 2.22222222 -1.11111111 2.22222222 0 0 Z " fill="#FDFDFD" transform="translate(211,148)"/>
<path d="M0 0 C4.95 0 9.9 0 15 0 C15 4.95 15 9.9 15 15 C10.05 15 5.1 15 0 15 C0 10.05 0 5.1 0 0 Z " fill="#EEEEEE" transform="translate(345,180)"/>
<path d="M0 0 C4.95 0 9.9 0 15 0 C15 4.95 15 9.9 15 15 C10.05 15 5.1 15 0 15 C0 10.05 0 5.1 0 0 Z " fill="#EEEEEE" transform="translate(315,180)"/>
<path d="M0 0 C4.95 0 9.9 0 15 0 C15 4.95 15 9.9 15 15 C10.05 15 5.1 15 0 15 C0 10.05 0 5.1 0 0 Z " fill="#EEEEEE" transform="translate(285,180)"/>
<path d="M0 0 C4.95 0 9.9 0 15 0 C15 4.95 15 9.9 15 15 C10.05 15 5.1 15 0 15 C0 10.05 0 5.1 0 0 Z " fill="#EEEEEE" transform="translate(255,180)"/>
<path d="M0 0 C4.95 0 9.9 0 15 0 C15 4.95 15 9.9 15 15 C10.05 15 5.1 15 0 15 C0 10.05 0 5.1 0 0 Z " fill="#EEEEEE" transform="translate(225,180)"/>
<path d="M0 0 C4.95 0 9.9 0 15 0 C15 4.95 15 9.9 15 15 C10.05 15 5.1 15 0 15 C0 10.05 0 5.1 0 0 Z " fill="#FFFFFF" transform="translate(210,180)"/>
<path d="M0 0 C4.95 0 9.9 0 15 0 C15 4.95 15 9.9 15 15 C10.05 15 5.1 15 0 15 C0 10.05 0 5.1 0 0 Z " fill="#FFFFFF" transform="translate(180,180)"/>
<path d="M0 0 C4.95 0 9.9 0 15 0 C15 4.95 15 9.9 15 15 C10.05 15 5.1 15 0 15 C0 10.05 0 5.1 0 0 Z " fill="#EEEEEE" transform="translate(165,180)"/>
<path d="M0 0 C4.95 0 9.9 0 15 0 C15 4.95 15 9.9 15 15 C10.05 15 5.1 15 0 15 C0 10.05 0 5.1 0 0 Z " fill="#EEEEEE" transform="translate(135,180)"/>
<path d="M0 0 C4.95 0 9.9 0 15 0 C15 4.95 15 9.9 15 15 C10.05 15 5.1 15 0 15 C0 10.05 0 5.1 0 0 Z " fill="#EEEEEE" transform="translate(105,180)"/>
<path d="M0 0 C4.95 0 9.9 0 15 0 C15 4.95 15 9.9 15 15 C10.05 15 5.1 15 0 15 C0 10.05 0 5.1 0 0 Z " fill="#EEEEEE" transform="translate(75,180)"/>
<path d="M0 0 C4.95 0 9.9 0 15 0 C15 4.95 15 9.9 15 15 C10.05 15 5.1 15 0 15 C0 10.05 0 5.1 0 0 Z " fill="#FFFFFF" transform="translate(60,180)"/>
<path d="M0 0 C4.95 0 9.9 0 15 0 C15 4.95 15 9.9 15 15 C10.05 15 5.1 15 0 15 C0 10.05 0 5.1 0 0 Z " fill="#EEEEEE" transform="translate(45,180)"/>
<path d="M0 0 C4.95 0 9.9 0 15 0 C15 4.95 15 9.9 15 15 C10.05 15 5.1 15 0 15 C0 10.05 0 5.1 0 0 Z " fill="#FFFFFF" transform="translate(30,180)"/>
<path d="M0 0 C4.95 0 9.9 0 15 0 C15 4.95 15 9.9 15 15 C10.05 15 5.1 15 0 15 C0 10.05 0 5.1 0 0 Z " fill="#EEEEEE" transform="translate(15,180)"/>
<path d="M0 0 C4.95 0 9.9 0 15 0 C15 4.95 15 9.9 15 15 C10.05 15 5.1 15 0 15 C0 10.05 0 5.1 0 0 Z " fill="#FFFFFF" transform="translate(345,165)"/>
<path d="M0 0 C4.95 0 9.9 0 15 0 C15 4.95 15 9.9 15 15 C10.05 15 5.1 15 0 15 C0 10.05 0 5.1 0 0 Z " fill="#EEEEEE" transform="translate(330,165)"/>
<path d="M0 0 C4.95 0 9.9 0 15 0 C15 4.95 15 9.9 15 15 C10.05 15 5.1 15 0 15 C0 10.05 0 5.1 0 0 Z " fill="#FFFFFF" transform="translate(315,165)"/>
<path d="M0 0 C4.95 0 9.9 0 15 0 C15 4.95 15 9.9 15 15 C10.05 15 5.1 15 0 15 C0 10.05 0 5.1 0 0 Z " fill="#EEEEEE" transform="translate(300,165)"/>
<path d="M0 0 C4.95 0 9.9 0 15 0 C15 4.95 15 9.9 15 15 C10.05 15 5.1 15 0 15 C0 10.05 0 5.1 0 0 Z " fill="#FFFFFF" transform="translate(285,165)"/>
<path d="M0 0 C4.95 0 9.9 0 15 0 C15 4.95 15 9.9 15 15 C10.05 15 5.1 15 0 15 C0 10.05 0 5.1 0 0 Z " fill="#EEEEEE" transform="translate(270,165)"/>
<path d="M0 0 C4.95 0 9.9 0 15 0 C15 4.95 15 9.9 15 15 C10.05 15 5.1 15 0 15 C0 10.05 0 5.1 0 0 Z " fill="#FFFFFF" transform="translate(255,165)"/>
<path d="M0 0 C4.95 0 9.9 0 15 0 C15 4.95 15 9.9 15 15 C10.05 15 5.1 15 0 15 C0 10.05 0 5.1 0 0 Z " fill="#EEEEEE" transform="translate(240,165)"/>
<path d="M0 0 C4.95 0 9.9 0 15 0 C15 4.95 15 9.9 15 15 C10.05 15 5.1 15 0 15 C0 10.05 0 5.1 0 0 Z " fill="#FFFFFF" transform="translate(225,165)"/>
<path d="M0 0 C4.95 0 9.9 0 15 0 C15 4.95 15 9.9 15 15 C10.05 15 5.1 15 0 15 C0 10.05 0 5.1 0 0 Z " fill="#EEEEEE" transform="translate(210,165)"/>
<path d="M0 0 C4.95 0 9.9 0 15 0 C15 4.95 15 9.9 15 15 C10.05 15 5.1 15 0 15 C0 10.05 0 5.1 0 0 Z " fill="#EEEEEE" transform="translate(120,165)"/>
<path d="M0 0 C4.95 0 9.9 0 15 0 C15 4.95 15 9.9 15 15 C10.05 15 5.1 15 0 15 C0 10.05 0 5.1 0 0 Z " fill="#FFFFFF" transform="translate(105,165)"/>
<path d="M0 0 C4.95 0 9.9 0 15 0 C15 4.95 15 9.9 15 15 C10.05 15 5.1 15 0 15 C0 10.05 0 5.1 0 0 Z " fill="#EEEEEE" transform="translate(90,165)"/>
<path d="M0 0 C4.95 0 9.9 0 15 0 C15 4.95 15 9.9 15 15 C10.05 15 5.1 15 0 15 C0 10.05 0 5.1 0 0 Z " fill="#FFFFFF" transform="translate(75,165)"/>
<path d="M0 0 C4.95 0 9.9 0 15 0 C15 4.95 15 9.9 15 15 C10.05 15 5.1 15 0 15 C0 10.05 0 5.1 0 0 Z " fill="#EEEEEE" transform="translate(60,165)"/>
<path d="M0 0 C4.95 0 9.9 0 15 0 C15 4.95 15 9.9 15 15 C10.05 15 5.1 15 0 15 C0 10.05 0 5.1 0 0 Z " fill="#FFFFFF" transform="translate(45,165)"/>
<path d="M0 0 C4.95 0 9.9 0 15 0 C15 4.95 15 9.9 15 15 C10.05 15 5.1 15 0 15 C0 10.05 0 5.1 0 0 Z " fill="#EEEEEE" transform="translate(30,165)"/>
<path d="M0 0 C4.95 0 9.9 0 15 0 C15 4.95 15 9.9 15 15 C10.05 15 5.1 15 0 15 C0 10.05 0 5.1 0 0 Z " fill="#FFFFFF" transform="translate(15,165)"/>
<path d="M0 0 C4.95 0 9.9 0 15 0 C15 4.95 15 9.9 15 15 C10.05 15 5.1 15 0 15 C0 10.05 0 5.1 0 0 Z " fill="#EEEEEE" transform="translate(0,165)"/>
<path d="M0 0 C4.95 0 9.9 0 15 0 C15 4.95 15 9.9 15 15 C10.05 15 5.1 15 0 15 C0 10.05 0 5.1 0 0 Z " fill="#EEEEEE" transform="translate(345,150)"/>
<path d="M0 0 C4.95 0 9.9 0 15 0 C15 4.95 15 9.9 15 15 C10.05 15 5.1 15 0 15 C0 10.05 0 5.1 0 0 Z " fill="#FFFFFF" transform="translate(330,150)"/>
<path d="M0 0 C4.95 0 9.9 0 15 0 C15 4.95 15 9.9 15 15 C10.05 15 5.1 15 0 15 C0 10.05 0 5.1 0 0 Z " fill="#EEEEEE" transform="translate(315,150)"/>
<path d="M0 0 C4.95 0 9.9 0 15 0 C15 4.95 15 9.9 15 15 C10.05 15 5.1 15 0 15 C0 10.05 0 5.1 0 0 Z " fill="#FFFFFF" transform="translate(300,150)"/>
<path d="M0 0 C4.95 0 9.9 0 15 0 C15 4.95 15 9.9 15 15 C10.05 15 5.1 15 0 15 C0 10.05 0 5.1 0 0 Z " fill="#EEEEEE" transform="translate(285,150)"/>
<path d="M0 0 C4.95 0 9.9 0 15 0 C15 4.95 15 9.9 15 15 C10.05 15 5.1 15 0 15 C0 10.05 0 5.1 0 0 Z " fill="#FFFFFF" transform="translate(270,150)"/>
<path d="M0 0 C4.95 0 9.9 0 15 0 C15 4.95 15 9.9 15 15 C10.05 15 5.1 15 0 15 C0 10.05 0 5.1 0 0 Z " fill="#EEEEEE" transform="translate(255,150)"/>
<path d="M0 0 C4.95 0 9.9 0 15 0 C15 4.95 15 9.9 15 15 C10.05 15 5.1 15 0 15 C0 10.05 0 5.1 0 0 Z " fill="#FFFFFF" transform="translate(240,150)"/>
<path d="M0 0 C4.95 0 9.9 0 15 0 C15 4.95 15 9.9 15 15 C10.05 15 5.1 15 0 15 C0 10.05 0 5.1 0 0 Z " fill="#EEEEEE" transform="translate(225,150)"/>
<path d="M0 0 C4.95 0 9.9 0 15 0 C15 4.95 15 9.9 15 15 C10.05 15 5.1 15 0 15 C0 10.05 0 5.1 0 0 Z " fill="#FFFFFF" transform="translate(120,150)"/>
<path d="M0 0 C4.95 0 9.9 0 15 0 C15 4.95 15 9.9 15 15 C10.05 15 5.1 15 0 15 C0 10.05 0 5.1 0 0 Z " fill="#EEEEEE" transform="translate(105,150)"/>
<path d="M0 0 C4.95 0 9.9 0 15 0 C15 4.95 15 9.9 15 15 C10.05 15 5.1 15 0 15 C0 10.05 0 5.1 0 0 Z " fill="#FFFFFF" transform="translate(90,150)"/>
<path d="M0 0 C4.95 0 9.9 0 15 0 C15 4.95 15 9.9 15 15 C10.05 15 5.1 15 0 15 C0 10.05 0 5.1 0 0 Z " fill="#EEEEEE" transform="translate(75,150)"/>
<path d="M0 0 C4.95 0 9.9 0 15 0 C15 4.95 15 9.9 15 15 C10.05 15 5.1 15 0 15 C0 10.05 0 5.1 0 0 Z " fill="#FFFFFF" transform="translate(60,150)"/>
<path d="M0 0 C4.95 0 9.9 0 15 0 C15 4.95 15 9.9 15 15 C10.05 15 5.1 15 0 15 C0 10.05 0 5.1 0 0 Z " fill="#EEEEEE" transform="translate(45,150)"/>
<path d="M0 0 C4.95 0 9.9 0 15 0 C15 4.95 15 9.9 15 15 C10.05 15 5.1 15 0 15 C0 10.05 0 5.1 0 0 Z " fill="#FFFFFF" transform="translate(30,150)"/>
<path d="M0 0 C4.95 0 9.9 0 15 0 C15 4.95 15 9.9 15 15 C10.05 15 5.1 15 0 15 C0 10.05 0 5.1 0 0 Z " fill="#EEEEEE" transform="translate(15,150)"/>
<path d="M0 0 C4.95 0 9.9 0 15 0 C15 4.95 15 9.9 15 15 C10.05 15 5.1 15 0 15 C0 10.05 0 5.1 0 0 Z " fill="#FFFFFF" transform="translate(0,150)"/>
<path d="M0 0 C4.95 0 9.9 0 15 0 C15 4.95 15 9.9 15 15 C10.05 15 5.1 15 0 15 C0 10.05 0 5.1 0 0 Z " fill="#FFFFFF" transform="translate(345,135)"/>
<path d="M0 0 C4.95 0 9.9 0 15 0 C15 4.95 15 9.9 15 15 C10.05 15 5.1 15 0 15 C0 10.05 0 5.1 0 0 Z " fill="#EEEEEE" transform="translate(330,135)"/>
<path d="M0 0 C4.95 0 9.9 0 15 0 C15 4.95 15 9.9 15 15 C10.05 15 5.1 15 0 15 C0 10.05 0 5.1 0 0 Z " fill="#FFFFFF" transform="translate(315,135)"/>
<path d="M0 0 C4.95 0 9.9 0 15 0 C15 4.95 15 9.9 15 15 C10.05 15 5.1 15 0 15 C0 10.05 0 5.1 0 0 Z " fill="#EEEEEE" transform="translate(300,135)"/>
<path d="M0 0 C4.95 0 9.9 0 15 0 C15 4.95 15 9.9 15 15 C10.05 15 5.1 15 0 15 C0 10.05 0 5.1 0 0 Z " fill="#FFFFFF" transform="translate(285,135)"/>
<path d="M0 0 C4.95 0 9.9 0 15 0 C15 4.95 15 9.9 15 15 C10.05 15 5.1 15 0 15 C0 10.05 0 5.1 0 0 Z " fill="#EEEEEE" transform="translate(270,135)"/>
<path d="M0 0 C4.95 0 9.9 0 15 0 C15 4.95 15 9.9 15 15 C10.05 15 5.1 15 0 15 C0 10.05 0 5.1 0 0 Z " fill="#FFFFFF" transform="translate(255,135)"/>
<path d="M0 0 C4.95 0 9.9 0 15 0 C15 4.95 15 9.9 15 15 C10.05 15 5.1 15 0 15 C0 10.05 0 5.1 0 0 Z " fill="#EEEEEE" transform="translate(240,135)"/>
<path d="M0 0 C4.95 0 9.9 0 15 0 C15 4.95 15 9.9 15 15 C10.05 15 5.1 15 0 15 C0 10.05 0 5.1 0 0 Z " fill="#FFFFFF" transform="translate(225,135)"/>
<path d="M0 0 C4.95 0 9.9 0 15 0 C15 4.95 15 9.9 15 15 C10.05 15 5.1 15 0 15 C0 10.05 0 5.1 0 0 Z " fill="#EEEEEE" transform="translate(120,135)"/>
<path d="M0 0 C4.95 0 9.9 0 15 0 C15 4.95 15 9.9 15 15 C10.05 15 5.1 15 0 15 C0 10.05 0 5.1 0 0 Z " fill="#FFFFFF" transform="translate(105,135)"/>
<path d="M0 0 C4.95 0 9.9 0 15 0 C15 4.95 15 9.9 15 15 C10.05 15 5.1 15 0 15 C0 10.05 0 5.1 0 0 Z " fill="#EEEEEE" transform="translate(90,135)"/>
<path d="M0 0 C4.95 0 9.9 0 15 0 C15 4.95 15 9.9 15 15 C10.05 15 5.1 15 0 15 C0 10.05 0 5.1 0 0 Z " fill="#FFFFFF" transform="translate(75,135)"/>
<path d="M0 0 C4.95 0 9.9 0 15 0 C15 4.95 15 9.9 15 15 C10.05 15 5.1 15 0 15 C0 10.05 0 5.1 0 0 Z " fill="#EEEEEE" transform="translate(60,135)"/>
<path d="M0 0 C4.95 0 9.9 0 15 0 C15 4.95 15 9.9 15 15 C10.05 15 5.1 15 0 15 C0 10.05 0 5.1 0 0 Z " fill="#FFFFFF" transform="translate(45,135)"/>
<path d="M0 0 C4.95 0 9.9 0 15 0 C15 4.95 15 9.9 15 15 C10.05 15 5.1 15 0 15 C0 10.05 0 5.1 0 0 Z " fill="#EEEEEE" transform="translate(30,135)"/>
<path d="M0 0 C4.95 0 9.9 0 15 0 C15 4.95 15 9.9 15 15 C10.05 15 5.1 15 0 15 C0 10.05 0 5.1 0 0 Z " fill="#FFFFFF" transform="translate(15,135)"/>
<path d="M0 0 C4.95 0 9.9 0 15 0 C15 4.95 15 9.9 15 15 C10.05 15 5.1 15 0 15 C0 10.05 0 5.1 0 0 Z " fill="#EEEEEE" transform="translate(0,135)"/>
<path d="M0 0 C4.95 0 9.9 0 15 0 C15 4.95 15 9.9 15 15 C10.05 15 5.1 15 0 15 C0 10.05 0 5.1 0 0 Z " fill="#EEEEEE" transform="translate(345,120)"/>
<path d="M0 0 C4.95 0 9.9 0 15 0 C15 4.95 15 9.9 15 15 C10.05 15 5.1 15 0 15 C0 10.05 0 5.1 0 0 Z " fill="#FFFFFF" transform="translate(330,120)"/>
<path d="M0 0 C4.95 0 9.9 0 15 0 C15 4.95 15 9.9 15 15 C10.05 15 5.1 15 0 15 C0 10.05 0 5.1 0 0 Z " fill="#EEEEEE" transform="translate(315,120)"/>
<path d="M0 0 C4.95 0 9.9 0 15 0 C15 4.95 15 9.9 15 15 C10.05 15 5.1 15 0 15 C0 10.05 0 5.1 0 0 Z " fill="#FFFFFF" transform="translate(300,120)"/>
<path d="M0 0 C4.95 0 9.9 0 15 0 C15 4.95 15 9.9 15 15 C10.05 15 5.1 15 0 15 C0 10.05 0 5.1 0 0 Z " fill="#EEEEEE" transform="translate(285,120)"/>
<path d="M0 0 C4.95 0 9.9 0 15 0 C15 4.95 15 9.9 15 15 C10.05 15 5.1 15 0 15 C0 10.05 0 5.1 0 0 Z " fill="#FFFFFF" transform="translate(270,120)"/>
<path d="M0 0 C4.95 0 9.9 0 15 0 C15 4.95 15 9.9 15 15 C10.05 15 5.1 15 0 15 C0 10.05 0 5.1 0 0 Z " fill="#EEEEEE" transform="translate(255,120)"/>
<path d="M0 0 C4.95 0 9.9 0 15 0 C15 4.95 15 9.9 15 15 C10.05 15 5.1 15 0 15 C0 10.05 0 5.1 0 0 Z " fill="#FFFFFF" transform="translate(240,120)"/>
<path d="M0 0 C4.95 0 9.9 0 15 0 C15 4.95 15 9.9 15 15 C10.05 15 5.1 15 0 15 C0 10.05 0 5.1 0 0 Z " fill="#EEEEEE" transform="translate(225,120)"/>
<path d="M0 0 C4.95 0 9.9 0 15 0 C15 4.95 15 9.9 15 15 C10.05 15 5.1 15 0 15 C0 10.05 0 5.1 0 0 Z " fill="#FFFFFF" transform="translate(210,120)"/>
<path d="M0 0 C4.95 0 9.9 0 15 0 C15 4.95 15 9.9 15 15 C10.05 15 5.1 15 0 15 C0 10.05 0 5.1 0 0 Z " fill="#EEEEEE" transform="translate(195,120)"/>
<path d="M0 0 C4.95 0 9.9 0 15 0 C15 4.95 15 9.9 15 15 C10.05 15 5.1 15 0 15 C0 10.05 0 5.1 0 0 Z " fill="#FFFFFF" transform="translate(150,120)"/>
<path d="M0 0 C4.95 0 9.9 0 15 0 C15 4.95 15 9.9 15 15 C10.05 15 5.1 15 0 15 C0 10.05 0 5.1 0 0 Z " fill="#EEEEEE" transform="translate(135,120)"/>
<path d="M0 0 C4.95 0 9.9 0 15 0 C15 4.95 15 9.9 15 15 C10.05 15 5.1 15 0 15 C0 10.05 0 5.1 0 0 Z " fill="#FFFFFF" transform="translate(120,120)"/>
<path d="M0 0 C4.95 0 9.9 0 15 0 C15 4.95 15 9.9 15 15 C10.05 15 5.1 15 0 15 C0 10.05 0 5.1 0 0 Z " fill="#EEEEEE" transform="translate(105,120)"/>
<path d="M0 0 C4.95 0 9.9 0 15 0 C15 4.95 15 9.9 15 15 C10.05 15 5.1 15 0 15 C0 10.05 0 5.1 0 0 Z " fill="#FFFFFF" transform="translate(90,120)"/>
<path d="M0 0 C4.95 0 9.9 0 15 0 C15 4.95 15 9.9 15 15 C10.05 15 5.1 15 0 15 C0 10.05 0 5.1 0 0 Z " fill="#EEEEEE" transform="translate(75,120)"/>
<path d="M0 0 C4.95 0 9.9 0 15 0 C15 4.95 15 9.9 15 15 C10.05 15 5.1 15 0 15 C0 10.05 0 5.1 0 0 Z " fill="#FFFFFF" transform="translate(60,120)"/>
<path d="M0 0 C4.95 0 9.9 0 15 0 C15 4.95 15 9.9 15 15 C10.05 15 5.1 15 0 15 C0 10.05 0 5.1 0 0 Z " fill="#EEEEEE" transform="translate(45,120)"/>
<path d="M0 0 C4.95 0 9.9 0 15 0 C15 4.95 15 9.9 15 15 C10.05 15 5.1 15 0 15 C0 10.05 0 5.1 0 0 Z " fill="#FFFFFF" transform="translate(30,120)"/>
<path d="M0 0 C4.95 0 9.9 0 15 0 C15 4.95 15 9.9 15 15 C10.05 15 5.1 15 0 15 C0 10.05 0 5.1 0 0 Z " fill="#EEEEEE" transform="translate(15,120)"/>
<path d="M0 0 C4.95 0 9.9 0 15 0 C15 4.95 15 9.9 15 15 C10.05 15 5.1 15 0 15 C0 10.05 0 5.1 0 0 Z " fill="#FFFFFF" transform="translate(0,120)"/>
<path d="M0 0 C4.95 0 9.9 0 15 0 C15 4.95 15 9.9 15 15 C10.05 15 5.1 15 0 15 C0 10.05 0 5.1 0 0 Z " fill="#FFFFFF" transform="translate(345,105)"/>
<path d="M0 0 C4.95 0 9.9 0 15 0 C15 4.95 15 9.9 15 15 C10.05 15 5.1 15 0 15 C0 10.05 0 5.1 0 0 Z " fill="#EEEEEE" transform="translate(330,105)"/>
<path d="M0 0 C4.95 0 9.9 0 15 0 C15 4.95 15 9.9 15 15 C10.05 15 5.1 15 0 15 C0 10.05 0 5.1 0 0 Z " fill="#FFFFFF" transform="translate(315,105)"/>
<path d="M0 0 C4.95 0 9.9 0 15 0 C15 4.95 15 9.9 15 15 C10.05 15 5.1 15 0 15 C0 10.05 0 5.1 0 0 Z " fill="#EEEEEE" transform="translate(300,105)"/>
<path d="M0 0 C4.95 0 9.9 0 15 0 C15 4.95 15 9.9 15 15 C10.05 15 5.1 15 0 15 C0 10.05 0 5.1 0 0 Z " fill="#FFFFFF" transform="translate(285,105)"/>
<path d="M0 0 C4.95 0 9.9 0 15 0 C15 4.95 15 9.9 15 15 C10.05 15 5.1 15 0 15 C0 10.05 0 5.1 0 0 Z " fill="#EEEEEE" transform="translate(270,105)"/>
<path d="M0 0 C4.95 0 9.9 0 15 0 C15 4.95 15 9.9 15 15 C10.05 15 5.1 15 0 15 C0 10.05 0 5.1 0 0 Z " fill="#FFFFFF" transform="translate(255,105)"/>
<path d="M0 0 C4.95 0 9.9 0 15 0 C15 4.95 15 9.9 15 15 C10.05 15 5.1 15 0 15 C0 10.05 0 5.1 0 0 Z " fill="#EEEEEE" transform="translate(240,105)"/>
<path d="M0 0 C4.95 0 9.9 0 15 0 C15 4.95 15 9.9 15 15 C10.05 15 5.1 15 0 15 C0 10.05 0 5.1 0 0 Z " fill="#FFFFFF" transform="translate(225,105)"/>
<path d="M0 0 C4.95 0 9.9 0 15 0 C15 4.95 15 9.9 15 15 C10.05 15 5.1 15 0 15 C0 10.05 0 5.1 0 0 Z " fill="#FFFFFF" transform="translate(195,105)"/>
<path d="M0 0 C4.95 0 9.9 0 15 0 C15 4.95 15 9.9 15 15 C10.05 15 5.1 15 0 15 C0 10.05 0 5.1 0 0 Z " fill="#EEEEEE" transform="translate(150,105)"/>
<path d="M0 0 C4.95 0 9.9 0 15 0 C15 4.95 15 9.9 15 15 C10.05 15 5.1 15 0 15 C0 10.05 0 5.1 0 0 Z " fill="#FFFFFF" transform="translate(135,105)"/>
<path d="M0 0 C4.95 0 9.9 0 15 0 C15 4.95 15 9.9 15 15 C10.05 15 5.1 15 0 15 C0 10.05 0 5.1 0 0 Z " fill="#EEEEEE" transform="translate(120,105)"/>
<path d="M0 0 C4.95 0 9.9 0 15 0 C15 4.95 15 9.9 15 15 C10.05 15 5.1 15 0 15 C0 10.05 0 5.1 0 0 Z " fill="#FFFFFF" transform="translate(105,105)"/>
<path d="M0 0 C4.95 0 9.9 0 15 0 C15 4.95 15 9.9 15 15 C10.05 15 5.1 15 0 15 C0 10.05 0 5.1 0 0 Z " fill="#EEEEEE" transform="translate(90,105)"/>
<path d="M0 0 C4.95 0 9.9 0 15 0 C15 4.95 15 9.9 15 15 C10.05 15 5.1 15 0 15 C0 10.05 0 5.1 0 0 Z " fill="#FFFFFF" transform="translate(75,105)"/>
<path d="M0 0 C4.95 0 9.9 0 15 0 C15 4.95 15 9.9 15 15 C10.05 15 5.1 15 0 15 C0 10.05 0 5.1 0 0 Z " fill="#EEEEEE" transform="translate(60,105)"/>
<path d="M0 0 C4.95 0 9.9 0 15 0 C15 4.95 15 9.9 15 15 C10.05 15 5.1 15 0 15 C0 10.05 0 5.1 0 0 Z " fill="#FFFFFF" transform="translate(45,105)"/>
<path d="M0 0 C4.95 0 9.9 0 15 0 C15 4.95 15 9.9 15 15 C10.05 15 5.1 15 0 15 C0 10.05 0 5.1 0 0 Z " fill="#EEEEEE" transform="translate(30,105)"/>
<path d="M0 0 C4.95 0 9.9 0 15 0 C15 4.95 15 9.9 15 15 C10.05 15 5.1 15 0 15 C0 10.05 0 5.1 0 0 Z " fill="#FFFFFF" transform="translate(15,105)"/>
<path d="M0 0 C4.95 0 9.9 0 15 0 C15 4.95 15 9.9 15 15 C10.05 15 5.1 15 0 15 C0 10.05 0 5.1 0 0 Z " fill="#EEEEEE" transform="translate(0,105)"/>
<path d="M0 0 C4.95 0 9.9 0 15 0 C15 4.95 15 9.9 15 15 C10.05 15 5.1 15 0 15 C0 10.05 0 5.1 0 0 Z " fill="#EEEEEE" transform="translate(345,90)"/>
<path d="M0 0 C4.95 0 9.9 0 15 0 C15 4.95 15 9.9 15 15 C10.05 15 5.1 15 0 15 C0 10.05 0 5.1 0 0 Z " fill="#FFFFFF" transform="translate(330,90)"/>
<path d="M0 0 C4.95 0 9.9 0 15 0 C15 4.95 15 9.9 15 15 C10.05 15 5.1 15 0 15 C0 10.05 0 5.1 0 0 Z " fill="#EEEEEE" transform="translate(315,90)"/>
<path d="M0 0 C4.95 0 9.9 0 15 0 C15 4.95 15 9.9 15 15 C10.05 15 5.1 15 0 15 C0 10.05 0 5.1 0 0 Z " fill="#FFFFFF" transform="translate(300,90)"/>
<path d="M0 0 C4.95 0 9.9 0 15 0 C15 4.95 15 9.9 15 15 C10.05 15 5.1 15 0 15 C0 10.05 0 5.1 0 0 Z " fill="#FFFFFF" transform="translate(270,90)"/>
<path d="M0 0 C4.95 0 9.9 0 15 0 C15 4.95 15 9.9 15 15 C10.05 15 5.1 15 0 15 C0 10.05 0 5.1 0 0 Z " fill="#FFFFFF" transform="translate(60,90)"/>
<path d="M0 0 C4.95 0 9.9 0 15 0 C15 4.95 15 9.9 15 15 C10.05 15 5.1 15 0 15 C0 10.05 0 5.1 0 0 Z " fill="#EEEEEE" transform="translate(45,90)"/>
<path d="M0 0 C4.95 0 9.9 0 15 0 C15 4.95 15 9.9 15 15 C10.05 15 5.1 15 0 15 C0 10.05 0 5.1 0 0 Z " fill="#FFFFFF" transform="translate(30,90)"/>
<path d="M0 0 C4.95 0 9.9 0 15 0 C15 4.95 15 9.9 15 15 C10.05 15 5.1 15 0 15 C0 10.05 0 5.1 0 0 Z " fill="#EEEEEE" transform="translate(15,90)"/>
<path d="M0 0 C4.95 0 9.9 0 15 0 C15 4.95 15 9.9 15 15 C10.05 15 5.1 15 0 15 C0 10.05 0 5.1 0 0 Z " fill="#FFFFFF" transform="translate(0,90)"/>
<path d="M0 0 C4.95 0 9.9 0 15 0 C15 4.95 15 9.9 15 15 C10.05 15 5.1 15 0 15 C0 10.05 0 5.1 0 0 Z " fill="#FFFFFF" transform="translate(345,75)"/>
<path d="M0 0 C4.95 0 9.9 0 15 0 C15 4.95 15 9.9 15 15 C10.05 15 5.1 15 0 15 C0 10.05 0 5.1 0 0 Z " fill="#EEEEEE" transform="translate(330,75)"/>
<path d="M0 0 C4.95 0 9.9 0 15 0 C15 4.95 15 9.9 15 15 C10.05 15 5.1 15 0 15 C0 10.05 0 5.1 0 0 Z " fill="#FFFFFF" transform="translate(315,75)"/>
<path d="M0 0 C4.95 0 9.9 0 15 0 C15 4.95 15 9.9 15 15 C10.05 15 5.1 15 0 15 C0 10.05 0 5.1 0 0 Z " fill="#EEEEEE" transform="translate(30,75)"/>
<path d="M0 0 C4.95 0 9.9 0 15 0 C15 4.95 15 9.9 15 15 C10.05 15 5.1 15 0 15 C0 10.05 0 5.1 0 0 Z " fill="#FFFFFF" transform="translate(15,75)"/>
<path d="M0 0 C4.95 0 9.9 0 15 0 C15 4.95 15 9.9 15 15 C10.05 15 5.1 15 0 15 C0 10.05 0 5.1 0 0 Z " fill="#EEEEEE" transform="translate(0,75)"/>
<path d="M0 0 C4.95 0 9.9 0 15 0 C15 4.95 15 9.9 15 15 C10.05 15 5.1 15 0 15 C0 10.05 0 5.1 0 0 Z " fill="#EEEEEE" transform="translate(345,60)"/>
<path d="M0 0 C4.95 0 9.9 0 15 0 C15 4.95 15 9.9 15 15 C10.05 15 5.1 15 0 15 C0 10.05 0 5.1 0 0 Z " fill="#FFFFFF" transform="translate(330,60)"/>
<path d="M0 0 C4.95 0 9.9 0 15 0 C15 4.95 15 9.9 15 15 C10.05 15 5.1 15 0 15 C0 10.05 0 5.1 0 0 Z " fill="#EEEEEE" transform="translate(315,60)"/>
<path d="M0 0 C4.95 0 9.9 0 15 0 C15 4.95 15 9.9 15 15 C10.05 15 5.1 15 0 15 C0 10.05 0 5.1 0 0 Z " fill="#FFFFFF" transform="translate(30,60)"/>
<path d="M0 0 C4.95 0 9.9 0 15 0 C15 4.95 15 9.9 15 15 C10.05 15 5.1 15 0 15 C0 10.05 0 5.1 0 0 Z " fill="#EEEEEE" transform="translate(15,60)"/>
<path d="M0 0 C4.95 0 9.9 0 15 0 C15 4.95 15 9.9 15 15 C10.05 15 5.1 15 0 15 C0 10.05 0 5.1 0 0 Z " fill="#FFFFFF" transform="translate(0,60)"/>
<path d="M0 0 C4.95 0 9.9 0 15 0 C15 4.95 15 9.9 15 15 C10.05 15 5.1 15 0 15 C0 10.05 0 5.1 0 0 Z " fill="#FFFFFF" transform="translate(345,45)"/>
<path d="M0 0 C4.95 0 9.9 0 15 0 C15 4.95 15 9.9 15 15 C10.05 15 5.1 15 0 15 C0 10.05 0 5.1 0 0 Z " fill="#EEEEEE" transform="translate(330,45)"/>
<path d="M0 0 C4.95 0 9.9 0 15 0 C15 4.95 15 9.9 15 15 C10.05 15 5.1 15 0 15 C0 10.05 0 5.1 0 0 Z " fill="#FFFFFF" transform="translate(315,45)"/>
<path d="M0 0 C4.95 0 9.9 0 15 0 C15 4.95 15 9.9 15 15 C10.05 15 5.1 15 0 15 C0 10.05 0 5.1 0 0 Z " fill="#EEEEEE" transform="translate(300,45)"/>
<path d="M0 0 C4.95 0 9.9 0 15 0 C15 4.95 15 9.9 15 15 C10.05 15 5.1 15 0 15 C0 10.05 0 5.1 0 0 Z " fill="#FFFFFF" transform="translate(285,45)"/>
<path d="M0 0 C4.95 0 9.9 0 15 0 C15 4.95 15 9.9 15 15 C10.05 15 5.1 15 0 15 C0 10.05 0 5.1 0 0 Z " fill="#EEEEEE" transform="translate(270,45)"/>
<path d="M0 0 C4.95 0 9.9 0 15 0 C15 4.95 15 9.9 15 15 C10.05 15 5.1 15 0 15 C0 10.05 0 5.1 0 0 Z " fill="#FFFFFF" transform="translate(255,45)"/>
<path d="M0 0 C4.95 0 9.9 0 15 0 C15 4.95 15 9.9 15 15 C10.05 15 5.1 15 0 15 C0 10.05 0 5.1 0 0 Z " fill="#EEEEEE" transform="translate(90,45)"/>
<path d="M0 0 C4.95 0 9.9 0 15 0 C15 4.95 15 9.9 15 15 C10.05 15 5.1 15 0 15 C0 10.05 0 5.1 0 0 Z " fill="#FFFFFF" transform="translate(75,45)"/>
<path d="M0 0 C4.95 0 9.9 0 15 0 C15 4.95 15 9.9 15 15 C10.05 15 5.1 15 0 15 C0 10.05 0 5.1 0 0 Z " fill="#EEEEEE" transform="translate(60,45)"/>
<path d="M0 0 C4.95 0 9.9 0 15 0 C15 4.95 15 9.9 15 15 C10.05 15 5.1 15 0 15 C0 10.05 0 5.1 0 0 Z " fill="#FFFFFF" transform="translate(45,45)"/>
<path d="M0 0 C4.95 0 9.9 0 15 0 C15 4.95 15 9.9 15 15 C10.05 15 5.1 15 0 15 C0 10.05 0 5.1 0 0 Z " fill="#EEEEEE" transform="translate(30,45)"/>
<path d="M0 0 C4.95 0 9.9 0 15 0 C15 4.95 15 9.9 15 15 C10.05 15 5.1 15 0 15 C0 10.05 0 5.1 0 0 Z " fill="#FFFFFF" transform="translate(15,45)"/>
<path d="M0 0 C4.95 0 9.9 0 15 0 C15 4.95 15 9.9 15 15 C10.05 15 5.1 15 0 15 C0 10.05 0 5.1 0 0 Z " fill="#EEEEEE" transform="translate(0,45)"/>
<path d="M0 0 C4.95 0 9.9 0 15 0 C15 4.95 15 9.9 15 15 C10.05 15 5.1 15 0 15 C0 10.05 0 5.1 0 0 Z " fill="#EEEEEE" transform="translate(345,30)"/>
<path d="M0 0 C4.95 0 9.9 0 15 0 C15 4.95 15 9.9 15 15 C10.05 15 5.1 15 0 15 C0 10.05 0 5.1 0 0 Z " fill="#FFFFFF" transform="translate(330,30)"/>
<path d="M0 0 C4.95 0 9.9 0 15 0 C15 4.95 15 9.9 15 15 C10.05 15 5.1 15 0 15 C0 10.05 0 5.1 0 0 Z " fill="#EEEEEE" transform="translate(315,30)"/>
<path d="M0 0 C4.95 0 9.9 0 15 0 C15 4.95 15 9.9 15 15 C10.05 15 5.1 15 0 15 C0 10.05 0 5.1 0 0 Z " fill="#FFFFFF" transform="translate(300,30)"/>
<path d="M0 0 C4.95 0 9.9 0 15 0 C15 4.95 15 9.9 15 15 C10.05 15 5.1 15 0 15 C0 10.05 0 5.1 0 0 Z " fill="#EEEEEE" transform="translate(285,30)"/>
<path d="M0 0 C4.95 0 9.9 0 15 0 C15 4.95 15 9.9 15 15 C10.05 15 5.1 15 0 15 C0 10.05 0 5.1 0 0 Z " fill="#FFFFFF" transform="translate(270,30)"/>
<path d="M0 0 C4.95 0 9.9 0 15 0 C15 4.95 15 9.9 15 15 C10.05 15 5.1 15 0 15 C0 10.05 0 5.1 0 0 Z " fill="#EEEEEE" transform="translate(255,30)"/>
<path d="M0 0 C4.95 0 9.9 0 15 0 C15 4.95 15 9.9 15 15 C10.05 15 5.1 15 0 15 C0 10.05 0 5.1 0 0 Z " fill="#FFFFFF" transform="translate(240,30)"/>
<path d="M0 0 C4.95 0 9.9 0 15 0 C15 4.95 15 9.9 15 15 C10.05 15 5.1 15 0 15 C0 10.05 0 5.1 0 0 Z " fill="#EEEEEE" transform="translate(225,30)"/>
<path d="M0 0 C4.95 0 9.9 0 15 0 C15 4.95 15 9.9 15 15 C10.05 15 5.1 15 0 15 C0 10.05 0 5.1 0 0 Z " fill="#FFFFFF" transform="translate(210,30)"/>
<path d="M0 0 C4.95 0 9.9 0 15 0 C15 4.95 15 9.9 15 15 C10.05 15 5.1 15 0 15 C0 10.05 0 5.1 0 0 Z " fill="#FFFFFF" transform="translate(150,30)"/>
<path d="M0 0 C4.95 0 9.9 0 15 0 C15 4.95 15 9.9 15 15 C10.05 15 5.1 15 0 15 C0 10.05 0 5.1 0 0 Z " fill="#EEEEEE" transform="translate(135,30)"/>
<path d="M0 0 C4.95 0 9.9 0 15 0 C15 4.95 15 9.9 15 15 C10.05 15 5.1 15 0 15 C0 10.05 0 5.1 0 0 Z " fill="#FFFFFF" transform="translate(120,30)"/>
<path d="M0 0 C4.95 0 9.9 0 15 0 C15 4.95 15 9.9 15 15 C10.05 15 5.1 15 0 15 C0 10.05 0 5.1 0 0 Z " fill="#EEEEEE" transform="translate(105,30)"/>
<path d="M0 0 C4.95 0 9.9 0 15 0 C15 4.95 15 9.9 15 15 C10.05 15 5.1 15 0 15 C0 10.05 0 5.1 0 0 Z " fill="#FFFFFF" transform="translate(90,30)"/>
<path d="M0 0 C4.95 0 9.9 0 15 0 C15 4.95 15 9.9 15 15 C10.05 15 5.1 15 0 15 C0 10.05 0 5.1 0 0 Z " fill="#EEEEEE" transform="translate(75,30)"/>
<path d="M0 0 C4.95 0 9.9 0 15 0 C15 4.95 15 9.9 15 15 C10.05 15 5.1 15 0 15 C0 10.05 0 5.1 0 0 Z " fill="#FFFFFF" transform="translate(60,30)"/>
<path d="M0 0 C4.95 0 9.9 0 15 0 C15 4.95 15 9.9 15 15 C10.05 15 5.1 15 0 15 C0 10.05 0 5.1 0 0 Z " fill="#EEEEEE" transform="translate(45,30)"/>
<path d="M0 0 C4.95 0 9.9 0 15 0 C15 4.95 15 9.9 15 15 C10.05 15 5.1 15 0 15 C0 10.05 0 5.1 0 0 Z " fill="#FFFFFF" transform="translate(30,30)"/>
<path d="M0 0 C4.95 0 9.9 0 15 0 C15 4.95 15 9.9 15 15 C10.05 15 5.1 15 0 15 C0 10.05 0 5.1 0 0 Z " fill="#EEEEEE" transform="translate(15,30)"/>
<path d="M0 0 C4.95 0 9.9 0 15 0 C15 4.95 15 9.9 15 15 C10.05 15 5.1 15 0 15 C0 10.05 0 5.1 0 0 Z " fill="#FFFFFF" transform="translate(0,30)"/>
<path d="M0 0 C4.95 0 9.9 0 15 0 C15 4.95 15 9.9 15 15 C10.05 15 5.1 15 0 15 C0 10.05 0 5.1 0 0 Z " fill="#FFFFFF" transform="translate(345,15)"/>
<path d="M0 0 C4.95 0 9.9 0 15 0 C15 4.95 15 9.9 15 15 C10.05 15 5.1 15 0 15 C0 10.05 0 5.1 0 0 Z " fill="#EEEEEE" transform="translate(330,15)"/>
<path d="M0 0 C4.95 0 9.9 0 15 0 C15 4.95 15 9.9 15 15 C10.05 15 5.1 15 0 15 C0 10.05 0 5.1 0 0 Z " fill="#FFFFFF" transform="translate(315,15)"/>
<path d="M0 0 C4.95 0 9.9 0 15 0 C15 4.95 15 9.9 15 15 C10.05 15 5.1 15 0 15 C0 10.05 0 5.1 0 0 Z " fill="#EEEEEE" transform="translate(300,15)"/>
<path d="M0 0 C4.95 0 9.9 0 15 0 C15 4.95 15 9.9 15 15 C10.05 15 5.1 15 0 15 C0 10.05 0 5.1 0 0 Z " fill="#FFFFFF" transform="translate(285,15)"/>
<path d="M0 0 C4.95 0 9.9 0 15 0 C15 4.95 15 9.9 15 15 C10.05 15 5.1 15 0 15 C0 10.05 0 5.1 0 0 Z " fill="#EEEEEE" transform="translate(270,15)"/>
<path d="M0 0 C4.95 0 9.9 0 15 0 C15 4.95 15 9.9 15 15 C10.05 15 5.1 15 0 15 C0 10.05 0 5.1 0 0 Z " fill="#FFFFFF" transform="translate(255,15)"/>
<path d="M0 0 C4.95 0 9.9 0 15 0 C15 4.95 15 9.9 15 15 C10.05 15 5.1 15 0 15 C0 10.05 0 5.1 0 0 Z " fill="#EEEEEE" transform="translate(240,15)"/>
<path d="M0 0 C4.95 0 9.9 0 15 0 C15 4.95 15 9.9 15 15 C10.05 15 5.1 15 0 15 C0 10.05 0 5.1 0 0 Z " fill="#FFFFFF" transform="translate(225,15)"/>
<path d="M0 0 C4.95 0 9.9 0 15 0 C15 4.95 15 9.9 15 15 C10.05 15 5.1 15 0 15 C0 10.05 0 5.1 0 0 Z " fill="#EEEEEE" transform="translate(210,15)"/>
<path d="M0 0 C4.95 0 9.9 0 15 0 C15 4.95 15 9.9 15 15 C10.05 15 5.1 15 0 15 C0 10.05 0 5.1 0 0 Z " fill="#FFFFFF" transform="translate(195,15)"/>
<path d="M0 0 C4.95 0 9.9 0 15 0 C15 4.95 15 9.9 15 15 C10.05 15 5.1 15 0 15 C0 10.05 0 5.1 0 0 Z " fill="#EEEEEE" transform="translate(150,15)"/>
<path d="M0 0 C4.95 0 9.9 0 15 0 C15 4.95 15 9.9 15 15 C10.05 15 5.1 15 0 15 C0 10.05 0 5.1 0 0 Z " fill="#FFFFFF" transform="translate(135,15)"/>
<path d="M0 0 C4.95 0 9.9 0 15 0 C15 4.95 15 9.9 15 15 C10.05 15 5.1 15 0 15 C0 10.05 0 5.1 0 0 Z " fill="#EEEEEE" transform="translate(120,15)"/>
<path d="M0 0 C4.95 0 9.9 0 15 0 C15 4.95 15 9.9 15 15 C10.05 15 5.1 15 0 15 C0 10.05 0 5.1 0 0 Z " fill="#FFFFFF" transform="translate(105,15)"/>
<path d="M0 0 C4.95 0 9.9 0 15 0 C15 4.95 15 9.9 15 15 C10.05 15 5.1 15 0 15 C0 10.05 0 5.1 0 0 Z " fill="#EEEEEE" transform="translate(90,15)"/>
<path d="M0 0 C4.95 0 9.9 0 15 0 C15 4.95 15 9.9 15 15 C10.05 15 5.1 15 0 15 C0 10.05 0 5.1 0 0 Z " fill="#FFFFFF" transform="translate(75,15)"/>
<path d="M0 0 C4.95 0 9.9 0 15 0 C15 4.95 15 9.9 15 15 C10.05 15 5.1 15 0 15 C0 10.05 0 5.1 0 0 Z " fill="#EEEEEE" transform="translate(60,15)"/>
<path d="M0 0 C4.95 0 9.9 0 15 0 C15 4.95 15 9.9 15 15 C10.05 15 5.1 15 0 15 C0 10.05 0 5.1 0 0 Z " fill="#FFFFFF" transform="translate(45,15)"/>
<path d="M0 0 C4.95 0 9.9 0 15 0 C15 4.95 15 9.9 15 15 C10.05 15 5.1 15 0 15 C0 10.05 0 5.1 0 0 Z " fill="#EEEEEE" transform="translate(30,15)"/>
<path d="M0 0 C4.95 0 9.9 0 15 0 C15 4.95 15 9.9 15 15 C10.05 15 5.1 15 0 15 C0 10.05 0 5.1 0 0 Z " fill="#FFFFFF" transform="translate(15,15)"/>
<path d="M0 0 C4.95 0 9.9 0 15 0 C15 4.95 15 9.9 15 15 C10.05 15 5.1 15 0 15 C0 10.05 0 5.1 0 0 Z " fill="#EEEEEE" transform="translate(0,15)"/>
<path d="M0 0 C4.95 0 9.9 0 15 0 C15 4.95 15 9.9 15 15 C10.05 15 5.1 15 0 15 C0 10.05 0 5.1 0 0 Z " fill="#EEEEEE" transform="translate(345,0)"/>
<path d="M0 0 C4.95 0 9.9 0 15 0 C15 4.95 15 9.9 15 15 C10.05 15 5.1 15 0 15 C0 10.05 0 5.1 0 0 Z " fill="#FFFFFF" transform="translate(330,0)"/>
<path d="M0 0 C4.95 0 9.9 0 15 0 C15 4.95 15 9.9 15 15 C10.05 15 5.1 15 0 15 C0 10.05 0 5.1 0 0 Z " fill="#EEEEEE" transform="translate(315,0)"/>
<path d="M0 0 C4.95 0 9.9 0 15 0 C15 4.95 15 9.9 15 15 C10.05 15 5.1 15 0 15 C0 10.05 0 5.1 0 0 Z " fill="#FFFFFF" transform="translate(300,0)"/>
<path d="M0 0 C4.95 0 9.9 0 15 0 C15 4.95 15 9.9 15 15 C10.05 15 5.1 15 0 15 C0 10.05 0 5.1 0 0 Z " fill="#EEEEEE" transform="translate(285,0)"/>
<path d="M0 0 C4.95 0 9.9 0 15 0 C15 4.95 15 9.9 15 15 C10.05 15 5.1 15 0 15 C0 10.05 0 5.1 0 0 Z " fill="#FFFFFF" transform="translate(270,0)"/>
<path d="M0 0 C4.95 0 9.9 0 15 0 C15 4.95 15 9.9 15 15 C10.05 15 5.1 15 0 15 C0 10.05 0 5.1 0 0 Z " fill="#EEEEEE" transform="translate(255,0)"/>
<path d="M0 0 C4.95 0 9.9 0 15 0 C15 4.95 15 9.9 15 15 C10.05 15 5.1 15 0 15 C0 10.05 0 5.1 0 0 Z " fill="#FFFFFF" transform="translate(240,0)"/>
<path d="M0 0 C4.95 0 9.9 0 15 0 C15 4.95 15 9.9 15 15 C10.05 15 5.1 15 0 15 C0 10.05 0 5.1 0 0 Z " fill="#EEEEEE" transform="translate(225,0)"/>
<path d="M0 0 C4.95 0 9.9 0 15 0 C15 4.95 15 9.9 15 15 C10.05 15 5.1 15 0 15 C0 10.05 0 5.1 0 0 Z " fill="#FFFFFF" transform="translate(210,0)"/>
<path d="M0 0 C4.95 0 9.9 0 15 0 C15 4.95 15 9.9 15 15 C10.05 15 5.1 15 0 15 C0 10.05 0 5.1 0 0 Z " fill="#EEEEEE" transform="translate(195,0)"/>
<path d="M0 0 C4.95 0 9.9 0 15 0 C15 4.95 15 9.9 15 15 C10.05 15 5.1 15 0 15 C0 10.05 0 5.1 0 0 Z " fill="#EEEEEE" transform="translate(165,0)"/>
<path d="M0 0 C4.95 0 9.9 0 15 0 C15 4.95 15 9.9 15 15 C10.05 15 5.1 15 0 15 C0 10.05 0 5.1 0 0 Z " fill="#FFFFFF" transform="translate(150,0)"/>
<path d="M0 0 C4.95 0 9.9 0 15 0 C15 4.95 15 9.9 15 15 C10.05 15 5.1 15 0 15 C0 10.05 0 5.1 0 0 Z " fill="#EEEEEE" transform="translate(135,0)"/>
<path d="M0 0 C4.95 0 9.9 0 15 0 C15 4.95 15 9.9 15 15 C10.05 15 5.1 15 0 15 C0 10.05 0 5.1 0 0 Z " fill="#FFFFFF" transform="translate(120,0)"/>
<path d="M0 0 C4.95 0 9.9 0 15 0 C15 4.95 15 9.9 15 15 C10.05 15 5.1 15 0 15 C0 10.05 0 5.1 0 0 Z " fill="#EEEEEE" transform="translate(105,0)"/>
<path d="M0 0 C4.95 0 9.9 0 15 0 C15 4.95 15 9.9 15 15 C10.05 15 5.1 15 0 15 C0 10.05 0 5.1 0 0 Z " fill="#FFFFFF" transform="translate(90,0)"/>
<path d="M0 0 C4.95 0 9.9 0 15 0 C15 4.95 15 9.9 15 15 C10.05 15 5.1 15 0 15 C0 10.05 0 5.1 0 0 Z " fill="#EEEEEE" transform="translate(75,0)"/>
<path d="M0 0 C4.95 0 9.9 0 15 0 C15 4.95 15 9.9 15 15 C10.05 15 5.1 15 0 15 C0 10.05 0 5.1 0 0 Z " fill="#FFFFFF" transform="translate(60,0)"/>
<path d="M0 0 C4.95 0 9.9 0 15 0 C15 4.95 15 9.9 15 15 C10.05 15 5.1 15 0 15 C0 10.05 0 5.1 0 0 Z " fill="#EEEEEE" transform="translate(45,0)"/>
<path d="M0 0 C4.95 0 9.9 0 15 0 C15 4.95 15 9.9 15 15 C10.05 15 5.1 15 0 15 C0 10.05 0 5.1 0 0 Z " fill="#FFFFFF" transform="translate(30,0)"/>
<path d="M0 0 C4.95 0 9.9 0 15 0 C15 4.95 15 9.9 15 15 C10.05 15 5.1 15 0 15 C0 10.05 0 5.1 0 0 Z " fill="#FFFFFF" transform="translate(0,0)"/>
<path d="M0 0 C4.95 0 9.9 0 15 0 C15 4.95 15 9.9 15 15 C10.05 15 5.1 15 0 15 C0 10.05 0 5.1 0 0 Z " fill="#EEEEEE" transform="translate(210,135)"/>
<path d="M0 0 C3.95712151 -0.09202608 7.0526448 0.21052896 11 1 C11 5.95 11 10.9 11 16 C6.05 16 1.1 16 -4 16 C-4.125 6.25 -4.125 6.25 -3 4 C-2.34 4 -1.68 4 -1 4 C-0.67 2.68 -0.34 1.36 0 0 Z " fill="#EEEEEE" transform="translate(184,164)"/>
<path d="M0 0 C4.95 0 9.9 0 15 0 C15.09765625 10.83984375 15.09765625 10.83984375 15 14 C14 15 14 15 10.83984375 15.09765625 C7.2265625 15.06510417 3.61328125 15.03255208 0 15 C0 10.05 0 5.1 0 0 Z " fill="#EDEDED" transform="translate(135,150)"/>
<path d="M0 0 C0.33 0 0.66 0 1 0 C1.12375 1.670625 1.12375 1.670625 1.25 3.375 C1.4975 4.57125 1.745 5.7675 2 7 C3.91764174 8.3762794 3.91764174 8.3762794 6 9 C6.33 9.66 6.66 10.32 7 11 C6.34 11 5.68 11 5 11 C5 12.98 5 14.96 5 17 C0.05 17 -4.9 17 -10 17 C-10 12.05 -10 7.1 -10 2 C-6.7 2 -3.4 2 0 2 C0 1.34 0 0.68 0 0 Z " fill="#FDFDFD" transform="translate(55,73)"/>
<path d="M0 0 C13.6332574 -0.3690205 13.6332574 -0.3690205 20 2 C19.67 5.96 19.34 9.92 19 14 C14.05 14 9.1 14 4 14 C4 9.71 4 5.42 4 1 C2.68 0.67 1.36 0.34 0 0 Z " fill="#FEFEFE" transform="translate(116,91)"/>
<path d="M0 0 C4.95 0 9.9 0 15 0 C15.1953125 7.6171875 15.1953125 7.6171875 15 10 C14.34 10.66 13.68 11.32 13 12 C12.57074219 12.53238281 12.14148437 13.06476563 11.69921875 13.61328125 C9.35415528 15.52706868 7.79395767 15.30366069 4.8125 15.1875 C3.224375 15.125625 1.63625 15.06375 0 15 C0 10.05 0 5.1 0 0 Z " fill="#EDEDED" transform="translate(45,60)"/>
<path d="M0 0 C0 4.29 0 8.58 0 13 C-4.95 13 -9.9 13 -15 13 C-15.390625 4.69921875 -15.390625 4.69921875 -15 2 C-10.63809287 -2.46621361 -5.66269403 -1.41567351 0 0 Z " fill="#ECECEC" transform="translate(240,92)"/>
<path d="M0 0 C4.95 0 9.9 0 15 0 C15.33 2.97 15.66 5.94 16 9 C15.34 9 14.68 9 14 9 C14 9.66 14 10.32 14 11 C6.41 11 -1.18 11 -9 11 C-9 7.7 -9 4.4 -9 1 C-8.67 1 -8.34 1 -8 1 C-8 3.97 -8 6.94 -8 10 C-5.36 10 -2.72 10 0 10 C0 6.7 0 3.4 0 0 Z " fill="#FEFEFE" transform="translate(195,135)"/>
<path d="M0 0 C4.95 0 9.9 0 15 0 C15 2.64 15 5.28 15 8 C15.66 8.33 16.32 8.66 17 9 C15.68 9 14.36 9 13 9 C12.34 8.01 11.68 7.02 11 6 C10.67 6.99 10.34 7.98 10 9 C9.01 9.33 8.02 9.66 7 10 C6.67 13.96 6.34 17.92 6 22 C4.68 21.67 3.36 21.34 2 21 C2.66 21 3.32 21 4 21 C4 19.02 4 17.04 4 15 C2.68 15 1.36 15 0 15 C0 10.05 0 5.1 0 0 Z " fill="#FCFCFC" transform="translate(225,45)"/>
<path d="M0 0 C11.625 0.75 11.625 0.75 15 3 C15.41394695 6.36676852 15.13087567 9.59723255 15 13 C10.05 13 5.1 13 0 13 C0 8.71 0 4.42 0 0 Z " fill="#EDEDED" transform="translate(135,92)"/>
<path d="M0 0 C4.62 0 9.24 0 14 0 C13.67 2.31 13.34 4.62 13 7 C11.35 7 9.7 7 8 7 C8.01160156 7.69867188 8.02320313 8.39734375 8.03515625 9.1171875 C8.04869141 10.48230469 8.04869141 10.48230469 8.0625 11.875 C8.07410156 12.77992187 8.08570313 13.68484375 8.09765625 14.6171875 C8 17 8 17 7 19 C6.34 19 5.68 19 5 19 C5 17.68 5 16.36 5 15 C3.35 15 1.7 15 0 15 C0 10.05 0 5.1 0 0 Z " fill="#F6F6F6" transform="translate(190,45)"/>
<path d="M0 0 C2.64 0 5.28 0 8 0 C8 4.95 8 9.9 8 15 C6.35 15 4.7 15 3 15 C3 19.95 3 24.9 3 30 C4.65 30 6.3 30 8 30 C8 31.32 8 32.64 8 34 C8.66 34 9.32 34 10 34 C10.33 33.34 10.66 32.68 11 32 C11 32.99 11 33.98 11 35 C8.03 35 5.06 35 2 35 C1.93941406 33.70964844 1.87882813 32.41929688 1.81640625 31.08984375 C1.73194119 29.37238745 1.64729623 27.65493998 1.5625 25.9375 C1.52318359 25.08994141 1.48386719 24.24238281 1.44335938 23.36914062 C1.19999783 18.52062979 0.70691173 13.80699978 0 9 C-0.06056151 7.35514934 -0.08781955 5.70827043 -0.0625 4.0625 C-0.05347656 3.29035156 -0.04445312 2.51820312 -0.03515625 1.72265625 C-0.02355469 1.15417969 -0.01195312 0.58570312 0 0 Z " fill="#FEFEFE" transform="translate(187,30)"/>
<path d="M0 0 C3.96 0 7.92 0 12 0 C12 4.95 12 9.9 12 15 C9.36 15 6.72 15 4 15 C3.67 15.99 3.34 16.98 3 18 C2.01 12.06 1.02 6.12 0 0 Z " fill="#EBEBEB" transform="translate(183,15)"/>
<path d="M0 0 C4.95 0 9.9 0 15 0 C15 2.64 15 5.28 15 8 C19.29 8.33 23.58 8.66 28 9 C28 9.33 28 9.66 28 10 C17.6094206 10.12288464 7.36053092 9.83360594 -3 9 C-2.67 8.34 -2.34 7.68 -2 7 C-1.34 7.33 -0.68 7.66 0 8 C0 5.36 0 2.72 0 0 Z " fill="#FDFDFD" transform="translate(270,60)"/>
<path d="M0 0 C4.95 0 9.9 0 15 0 C15 6.27 15 12.54 15 19 C16.65 19 18.3 19 20 19 C20.33 15.37 20.66 11.74 21 8 C21.33 8 21.66 8 22 8 C22.02686553 9.97909398 22.04633375 11.95828971 22.0625 13.9375 C22.07410156 15.03964844 22.08570313 16.14179687 22.09765625 17.27734375 C22 20 22 20 21 21 C17.99668982 21.14193337 15.00782866 21.04236378 12 21 C12 16.38 12 11.76 12 7 C10.68 7 9.36 7 8 7 C7.34 5.68 6.68 4.36 6 3 C5.67 3.99 5.34 4.98 5 6 C3.35 6 1.7 6 0 6 C0 4.02 0 2.04 0 0 Z " fill="#EFEFEF" transform="translate(150,45)"/>
<path d="M0 0 C4.95 0 9.9 0 15 0 C15 3.3 15 6.6 15 10 C13.06280622 10.05406122 11.12518079 10.09282025 9.1875 10.125 C8.10855469 10.14820313 7.02960938 10.17140625 5.91796875 10.1953125 C3 10 3 10 0 8 C-0.40843923 5.28796348 -0.13336867 2.7562858 0 0 Z " fill="#EEEEEE" transform="translate(150,135)"/>
<path d="M0 0 C5.94 0 11.88 0 18 0 C18 3.3 18 6.6 18 10 C13.05 10 8.1 10 3 10 C3.14648438 6.97265625 3.14648438 6.97265625 3.29296875 3.9453125 C3.19628906 3.30335937 3.09960938 2.66140625 3 2 C2.01 1.34 1.02 0.68 0 0 Z " fill="#EAEAEA" transform="translate(192,95)"/>
<path d="M0 0 C4.95 0 9.9 0 15 0 C15 2.97 15 5.94 15 9 C12.87506859 9.02693575 10.75004088 9.04636628 8.625 9.0625 C7.44164062 9.07410156 6.25828125 9.08570312 5.0390625 9.09765625 C2 9 2 9 0 8 C0 5.36 0 2.72 0 0 Z " fill="#EEEEEE" transform="translate(285,60)"/>
<path d="M0 0 C4.95 0 9.9 0 15 0 C15 2.64 15 5.28 15 8 C11.23699626 9.25433458 7.72789091 9.10695422 3.8125 9.0625 C3.06291016 9.05798828 2.31332031 9.05347656 1.54101562 9.04882812 C-0.30602383 9.03706354 -2.15302213 9.01912865 -4 9 C-2.68 8.34 -1.36 7.68 0 7 C0 4.69 0 2.38 0 0 Z " fill="#E4E4E4" transform="translate(255,60)"/>
<path d="M0 0 C4.95 0 9.9 0 15 0 C15 2.64 15 5.28 15 8 C10.05 8 5.1 8 0 8 C0 5.36 0 2.72 0 0 Z " fill="#EEEEEE" transform="translate(75,60)"/>
<path d="M0 0 C0.33 0 0.66 0 1 0 C1 1.65 1 3.3 1 5 C4.63 5 8.26 5 12 5 C12 7.31 12 9.62 12 12 C15.63 12 19.26 12 23 12 C23 12.33 23 12.66 23 13 C15.41 13 7.82 13 0 13 C0 8.71 0 4.42 0 0 Z " fill="#FFFFFF" transform="translate(243,55)"/>
<path d="M0 0 C2.31 0 4.62 0 7 0 C7.33 4.95 7.66 9.9 8 15 C5.36 15 2.72 15 0 15 C0 10.05 0 5.1 0 0 Z " fill="#EEEEEE" transform="translate(165,120)"/>
<path d="M0 0 C2.64 0 5.28 0 8 0 C8.05437607 1.58294782 8.09296271 3.16644256 8.125 4.75 C8.14820313 5.63171875 8.17140625 6.5134375 8.1953125 7.421875 C7.9631915 10.48587218 7.20214146 12.79785854 5 15 C3.35 15 1.7 15 0 15 C0 10.05 0 5.1 0 0 Z " fill="#EEEEEE" transform="translate(165,30)"/>
<path d="M0 0 C0 0.99 0 1.98 0 3 C-0.99 3.495 -0.99 3.495 -2 4 C-2.33 6.31 -2.66 8.62 -3 11 C-7.95 11 -12.9 11 -18 11 C-18 10.01 -18 9.02 -18 8 C-19.32 7.67 -20.64 7.34 -22 7 C-20.36094303 5.36094303 -18.32101686 5.83869351 -16.0625 5.75 C-9.87747087 5.27236032 -5.29366889 3.11189646 0 0 Z " fill="#F5F5F5" transform="translate(303,79)"/>
<path d="M0 0 C1.98 0 3.96 0 6 0 C6 4.95 6 9.9 6 15 C4.02 15 2.04 15 0 15 C0 10.05 0 5.1 0 0 Z " fill="#EEEEEE" transform="translate(189,105)"/>
<path d="M0 0 C0.75410156 0.09990234 1.50820312 0.19980469 2.28515625 0.30273438 C4.14917753 0.55048404 6.01219288 0.80578057 7.875 1.0625 C6.885 1.7225 5.895 2.3825 4.875 3.0625 C4.875 4.0525 4.875 5.0425 4.875 6.0625 C-0.075 6.0625 -5.025 6.0625 -10.125 6.0625 C-10.125 4.0825 -10.125 2.1025 -10.125 0.0625 C-6.87932383 -1.56033808 -3.48660376 -0.48475234 0 0 Z " fill="#E7E7E7" transform="translate(70.125,83.9375)"/>
<path d="M0 0 C1.134375 0.020625 2.26875 0.04125 3.4375 0.0625 C3.4375 3.3625 3.4375 6.6625 3.4375 10.0625 C0.7975 10.0625 -1.8425 10.0625 -4.5625 10.0625 C-4.58939216 8.58343108 -4.60884621 7.10422517 -4.625 5.625 C-4.63660156 4.80128906 -4.64820313 3.97757813 -4.66015625 3.12890625 C-4.49001835 -0.47121162 -3.73687179 0.06555915 0 0 Z " fill="#EEEEEE" transform="translate(191.5625,134.9375)"/>
<path d="M0 0 C1.65 0 3.3 0 5 0 C5 4.95 5 9.9 5 15 C3.35 15 1.7 15 0 15 C0 10.05 0 5.1 0 0 Z " fill="#EEEEEE" transform="translate(190,45)"/>
<path d="M0 0 C3.63 0 7.26 0 11 0 C11 1.98 11 3.96 11 6 C7.32589215 7.17571451 3.83070817 7.07366746 0 7 C0 4.69 0 2.38 0 0 Z " fill="#EEEEEE" transform="translate(105,60)"/>
<path d="M0 0 C0 0.99 0 1.98 0 3 C-4.95 3 -9.9 3 -15 3 C-15 2.34 -15 1.68 -15 1 C-16.65 1 -18.3 1 -20 1 C-20 0.67 -20 0.34 -20 0 C-5.68181818 -1.81818182 -5.68181818 -1.81818182 0 0 Z " fill="#E4E4E4" transform="translate(285,87)"/>
<path d="M0 0 C1.98 0 3.96 0 6 0 C6 6.93 6 13.86 6 21 C5.67 21 5.34 21 5 21 C5 16.38 5 11.76 5 7 C3.68 7 2.36 7 1 7 C0.67 4.69 0.34 2.38 0 0 Z " fill="#D4D4D4" transform="translate(204,45)"/>
<path d="M0 0 C0.33 0 0.66 0 1 0 C1.125 6.75 1.125 6.75 0 9 C-1.98 9 -3.96 9 -6 9 C-6 6.36 -6 3.72 -6 1 C-4.7934375 1.0309375 -4.7934375 1.0309375 -3.5625 1.0625 C-1.06645115 1.29633621 -1.06645115 1.29633621 0 0 Z " fill="#E9E9E9" transform="translate(171,96)"/>
<path d="M0 0 C0.33 0 0.66 0 1 0 C1.02686553 1.97909398 1.04633375 3.95828971 1.0625 5.9375 C1.07410156 7.03964844 1.08570313 8.14179687 1.09765625 9.27734375 C1 12 1 12 0 13 C-1.51928038 13.07179964 -3.04167482 13.08392007 -4.5625 13.0625 C-5.38878906 13.05347656 -6.21507812 13.04445313 -7.06640625 13.03515625 C-7.70449219 13.02355469 -8.34257812 13.01195313 -9 13 C-9.125 10.125 -9.125 10.125 -9 7 C-8.34 6.34 -7.68 5.68 -7 5 C-6.67 6.98 -6.34 8.96 -6 11 C-4.35 11 -2.7 11 -1 11 C-0.67 7.37 -0.34 3.74 0 0 Z " fill="#C5C5C5" transform="translate(171,53)"/>
<path d="M0 0 C1.32 0 2.64 0 4 0 C4 1.98 4 3.96 4 6 C2.68 5.67 1.36 5.34 0 5 C0 3.35 0 1.7 0 0 Z " fill="#EEEEEE" transform="translate(225,60)"/>
<path d="M0 0 C1.65 0 3.3 0 5 0 C5 1.32 5 2.64 5 4 C3.35 4 1.7 4 0 4 C0 2.68 0 1.36 0 0 Z " fill="#EEEEEE" transform="translate(165,60)"/>
</svg>
