<?xml version="1.0" standalone="no"?>
<!DOCTYPE svg PUBLIC "-//W3C//DTD SVG 20010904//EN"
 "http://www.w3.org/TR/2001/REC-SVG-20010904/DTD/svg10.dtd">
<svg version="1.0" xmlns="http://www.w3.org/2000/svg"
 width="512.000000pt" height="512.000000pt" viewBox="0 0 512.000000 512.000000"
 preserveAspectRatio="xMidYMid meet">

<g transform="translate(0.000000,512.000000) scale(0.100000,-0.100000)"
fill="#000000" stroke="none">
<path d="M2375 5109 c-525 -71 -976 -414 -1180 -896 l-34 -83 1399 0 1399 0
-26 62 c-161 396 -502 717 -903 852 -185 61 -472 90 -655 65z"/>
<path d="M1086 3784 c-3 -26 -6 -198 -6 -383 0 -541 5 -558 327 -1136 l140
-250 1012 0 1013 0 145 260 c234 419 286 540 312 729 12 83 15 702 5 780 l-7
46 -1467 0 -1467 0 -7 -46z"/>
<path d="M929 2025 c-158 -101 -200 -131 -213 -159 -14 -31 -16 -123 -16 -899
l0 -864 23 -33 c44 -65 118 -85 188 -52 20 9 270 175 554 367 343 232 524 360
537 380 22 37 23 65 2 65 -9 0 -43 14 -76 32 -111 59 -136 96 -477 709 -172
310 -316 567 -320 571 -3 4 -94 -49 -202 -117z"/>
<path d="M3948 2073 c-24 -43 -167 -301 -318 -573 -302 -543 -330 -584 -442
-640 -34 -16 -67 -30 -75 -30 -22 0 -14 -44 15 -77 27 -31 969 -672 1065 -726
27 -15 64 -27 81 -27 43 0 96 30 124 70 l22 33 0 864 c0 772 -2 869 -16 899
-17 35 -38 51 -244 179 -69 43 -135 84 -147 92 -20 14 -23 11 -65 -64z"/>
<path d="M1720 1706 c0 -2 69 -127 153 -277 118 -211 161 -279 187 -297 l34
-23 470 3 c466 3 471 3 502 25 21 15 74 101 179 290 81 147 150 271 152 276 2
4 -374 7 -836 7 -463 0 -841 -2 -841 -4z"/>
</g>
</svg>
