<svg version="1.1" xmlns="http://www.w3.org/2000/svg" width="1602" height="1234"><path xmlns="http://www.w3.org/2000/svg" d="M0 0 C0.92876953 0.00515625 1.85753906 0.0103125 2.81445312 0.015625 C3.78189453 0.03625 4.74933594 0.056875 5.74609375 0.078125 C7.20305664 0.08585938 7.20305664 0.08585938 8.68945312 0.09375 C15.8746252 0.17364072 15.8746252 0.17364072 18.18359375 1.328125 C18.22987273 10.68120111 18.26544028 20.03423799 18.28721809 29.38740349 C18.29766875 33.73015249 18.31185122 38.07282333 18.33447266 42.41552734 C18.35615549 46.60411475 18.36815271 50.79262684 18.37334824 54.98126602 C18.37705222 56.5817089 18.38428488 58.18214751 18.39505386 59.78255844 C18.40950838 62.01903032 18.41157426 64.25518837 18.41064453 66.49169922 C18.41508575 67.76633026 18.41952698 69.0409613 18.42410278 70.35421753 C18.18359375 73.328125 18.18359375 73.328125 16.18359375 75.328125 C15.85359375 76.648125 15.52359375 77.968125 15.18359375 79.328125 C27.06359375 79.328125 38.94359375 79.328125 51.18359375 79.328125 C51.18359375 53.588125 51.18359375 27.848125 51.18359375 1.328125 C58.77359375 1.328125 66.36359375 1.328125 74.18359375 1.328125 C78.49609375 11.265625 78.49609375 11.265625 79.8371582 14.40209961 C80.19511475 15.21171143 80.55307129 16.02132324 80.921875 16.85546875 C81.28321533 17.68812256 81.64455566 18.52077637 82.0168457 19.37866211 C83.09503184 21.66062132 83.09503184 21.66062132 86.18359375 22.328125 C87.11914062 24.07470703 87.11914062 24.07470703 87.90234375 26.3359375 C88.19496094 27.15835938 88.48757813 27.98078125 88.7890625 28.828125 C89.23185547 30.1275 89.23185547 30.1275 89.68359375 31.453125 C90.27560248 33.14383988 90.86932737 34.83395492 91.46484375 36.5234375 C91.75125732 37.34287842 92.0376709 38.16231934 92.33276367 39.0065918 C93.09328577 41.08171509 93.92705778 43.08845385 94.828125 45.10546875 C96.06231498 48.0397821 96.81524542 50.64432286 97.37109375 53.765625 C97.52964844 54.63058594 97.68820312 55.49554687 97.8515625 56.38671875 C97.96113281 57.02738281 98.07070313 57.66804687 98.18359375 58.328125 C98.84359375 58.328125 99.50359375 58.328125 100.18359375 58.328125 C101.3545338 61.1180689 102.52050302 63.90991097 103.68359375 66.703125 C104.01746094 67.4971875 104.35132813 68.29125 104.6953125 69.109375 C105.16904297 70.25019531 105.16904297 70.25019531 105.65234375 71.4140625 C105.94560547 72.1157959 106.23886719 72.8175293 106.54101562 73.54052734 C107.18359375 75.328125 107.18359375 75.328125 107.18359375 77.328125 C108.50359375 77.658125 109.82359375 77.988125 111.18359375 78.328125 C111.98312513 81.61508733 112.28018311 83.03835692 111.18359375 86.328125 C111.78171875 86.534375 112.37984375 86.740625 112.99609375 86.953125 C116.15272906 88.93729577 116.82105506 90.8598447 118.18359375 94.328125 C118.43124373 95.74167772 118.65821296 97.15891974 118.87109375 98.578125 C119.94505715 104.76754565 122.65245572 110.1968061 125.35229492 115.81933594 C127.50058017 120.38363343 128.61911347 124.2603465 129.18359375 129.328125 C130.13754211 131.35049552 131.12894726 133.3563946 132.18359375 135.328125 C132.18359375 135.988125 132.18359375 136.648125 132.18359375 137.328125 C133.17359375 137.328125 134.16359375 137.328125 135.18359375 137.328125 C141.58820344 149.8153249 147.44637272 162.52208101 153.18359375 175.328125 C153.177229 174.65048096 153.17086426 173.97283691 153.16430664 173.2746582 C153.11833047 156.74970896 155.20322898 143.76833949 161.18359375 128.328125 C169.43359375 128.328125 177.68359375 128.328125 186.18359375 128.328125 C192.91753464 144.11910251 194.15054753 157.32301074 193.8215332 174.39746094 C193.74513662 178.37799491 193.71894941 182.35474366 193.70117188 186.3359375 C193.67861707 188.87502677 193.65333001 191.4140936 193.625 193.953125 C193.61336319 195.13841797 193.60172638 196.32371094 193.58973694 197.54492188 C193.56729416 198.64126953 193.54485138 199.73761719 193.52172852 200.8671875 C193.5050563 201.82834473 193.48838409 202.78950195 193.47120667 203.77978516 C193.16861736 206.46082047 192.64730219 208.07352329 191.18359375 210.328125 C188.11737006 212.42606752 184.9498417 214.26632913 181.73828125 216.1328125 C178.89620664 218.09978792 178.89620664 218.09978792 178.6953125 221.28515625 C179.16808222 224.23145714 179.86575526 226.44678475 181.12109375 229.140625 C183.18894051 233.95585828 183.84712194 238.11281191 184.18359375 243.328125 C185.17359375 243.658125 186.16359375 243.988125 187.18359375 244.328125 C187.18359375 245.978125 187.18359375 247.628125 187.18359375 249.328125 C186.52359375 249.328125 185.86359375 249.328125 185.18359375 249.328125 C185.18359375 249.988125 185.18359375 250.648125 185.18359375 251.328125 C186.83359375 251.328125 188.48359375 251.328125 190.18359375 251.328125 C190.18359375 252.318125 190.18359375 253.308125 190.18359375 254.328125 C187.31241859 255.48370773 184.43605446 256.62579367 181.55859375 257.765625 C180.34623047 258.25385742 180.34623047 258.25385742 179.109375 258.75195312 C174.80210161 260.45034954 170.82037824 261.79541999 166.18359375 262.328125 C166.18359375 262.988125 166.18359375 263.648125 166.18359375 264.328125 C167.23546875 264.27591797 167.23546875 264.27591797 168.30859375 264.22265625 C174.73631544 264.03925658 179.33803675 264.62184861 185.18359375 267.328125 C186.18359375 268.328125 186.18359375 268.328125 186.29711914 271.74633789 C186.29696003 273.26449488 186.29126601 274.78265729 186.28125 276.30078125 C186.27912758 277.49724525 186.27912758 277.49724525 186.27696228 278.71788025 C186.27134691 281.27549935 186.25879187 283.83303218 186.24609375 286.390625 C186.24108073 288.12044145 186.23651748 289.85025926 186.23242188 291.58007812 C186.2213725 295.82946053 186.20409761 300.07877812 186.18359375 304.328125 C179.91015625 307.71484375 179.91015625 307.71484375 176.09765625 307.62109375 C175.39511719 307.61142578 174.69257812 307.60175781 173.96875 307.59179688 C173.25589844 307.56666016 172.54304688 307.54152344 171.80859375 307.515625 C170.70451172 307.49532227 170.70451172 307.49532227 169.578125 307.47460938 C167.77962632 307.43957369 165.98150953 307.38577788 164.18359375 307.328125 C166.44883664 309.89751239 168.41969623 311.0094232 171.6328125 312.15234375 C172.48037109 312.45849609 173.32792969 312.76464844 174.20117188 313.08007812 C175.08224609 313.38880859 175.96332031 313.69753906 176.87109375 314.015625 C177.76376953 314.33595703 178.65644531 314.65628906 179.57617188 314.98632812 C181.77606356 315.77452461 183.97844521 316.55478395 186.18359375 317.328125 C183.72557268 347.62699693 166.47474303 372.21150318 148.18359375 395.328125 C147.51199219 396.27300781 146.84039063 397.21789063 146.1484375 398.19140625 C145.50003906 398.89652344 144.85164063 399.60164063 144.18359375 400.328125 C142.86359375 400.328125 141.54359375 400.328125 140.18359375 400.328125 C140.27640625 401.47410156 140.36921875 402.62007812 140.46484375 403.80078125 C141.14628712 415.82461788 141.14628712 415.82461788 138.5078125 419.9453125 C136.47415859 421.67782205 134.51833658 423.03798986 132.18359375 424.328125 C131.19359375 424.988125 130.20359375 425.648125 129.18359375 426.328125 C126.49609375 426.453125 126.49609375 426.453125 124.18359375 426.328125 C124.1165625 426.92109375 124.04953125 427.5140625 123.98046875 428.125 C122.86588793 431.20648816 121.22857072 431.9408308 118.43359375 433.578125 C117.5725 434.09890625 116.71140625 434.6196875 115.82421875 435.15625 C113.02642347 436.39787513 111.20594048 436.56730352 108.18359375 436.328125 C108.18359375 436.988125 108.18359375 437.648125 108.18359375 438.328125 C102.51852364 441.41712701 97.6750194 443.90477115 91.18359375 444.328125 C91.18359375 444.988125 91.18359375 445.648125 91.18359375 446.328125 C86.8557334 447.67968272 82.52114162 449.00800174 78.18359375 450.328125 C77.02085937 450.68648437 75.858125 451.04484375 74.66015625 451.4140625 C67.81230397 453.46072397 61.10856367 454.97759312 54.0234375 455.93359375 C51.28118736 456.2703113 51.28118736 456.2703113 49.01489258 456.83569336 C45.35871069 457.4715922 41.7433596 457.54847986 38.04296875 457.6015625 C37.25112183 457.61386398 36.4592749 457.62616547 35.64343262 457.63883972 C33.07345156 457.67101935 30.50373956 457.68978669 27.93359375 457.703125 C26.62618225 457.71096512 26.62618225 457.71096512 25.2923584 457.71896362 C9.46836787 457.76283622 -5.69428665 456.36883153 -20.81640625 451.328125 C-20.81640625 450.668125 -20.81640625 450.008125 -20.81640625 449.328125 C-22.11578125 449.245625 -23.41515625 449.163125 -24.75390625 449.078125 C-29.9573549 448.52474237 -34.18662193 446.68132507 -38.81640625 444.328125 C-38.81640625 443.668125 -38.81640625 443.008125 -38.81640625 442.328125 C-39.76515625 442.26625 -40.71390625 442.204375 -41.69140625 442.140625 C-46.88767874 441.43640737 -51.26912 438.80763119 -55.81640625 436.328125 C-55.81640625 435.338125 -55.81640625 434.348125 -55.81640625 433.328125 C-56.52152344 433.40675781 -57.22664063 433.48539063 -57.953125 433.56640625 C-61.75514682 433.25000334 -63.58617497 431.77628881 -66.62890625 429.515625 C-68.09263672 428.45408203 -68.09263672 428.45408203 -69.5859375 427.37109375 C-70.32199219 426.69691406 -71.05804688 426.02273438 -71.81640625 425.328125 C-71.81640625 424.338125 -71.81640625 423.348125 -71.81640625 422.328125 C-72.55503906 422.23402344 -73.29367187 422.13992188 -74.0546875 422.04296875 C-77.22197806 421.22314672 -78.62687439 420.1021382 -81.00390625 417.890625 C-81.67808594 417.27316406 -82.35226562 416.65570312 -83.046875 416.01953125 C-86.80497709 412.42734978 -86.80497709 412.42734978 -87.04345703 410.35693359 C-87.0329834 409.57141113 -87.02250977 408.78588867 -87.01171875 407.9765625 C-87.00527344 407.12578125 -86.99882812 406.275 -86.9921875 405.3984375 C-86.97542969 404.50898437 -86.95867187 403.61953125 -86.94140625 402.703125 C-86.93238281 401.8059375 -86.92335938 400.90875 -86.9140625 399.984375 C-86.89045595 397.76535914 -86.85752935 395.54687423 -86.81640625 393.328125 C-87.72648437 393.40417969 -88.6365625 393.48023438 -89.57421875 393.55859375 C-92.81640625 393.328125 -92.81640625 393.328125 -94.87109375 391.81640625 C-100.24952539 385.38768002 -104.6853251 378.6182682 -108.81640625 371.328125 C-109.37972656 370.35101562 -109.94304687 369.37390625 -110.5234375 368.3671875 C-114.85804166 360.30705706 -117.96391168 351.86083 -121.06640625 343.265625 C-121.49099121 342.09443115 -121.91557617 340.9232373 -122.35302734 339.71655273 C-128.81640625 321.38310271 -128.81640625 321.38310271 -128.81640625 312.328125 C-125.52651539 311.15640744 -122.23421523 309.99161412 -118.94140625 308.828125 C-118.00425781 308.49425781 -117.06710937 308.16039062 -116.1015625 307.81640625 C-115.20566406 307.50058594 -114.30976563 307.18476562 -113.38671875 306.859375 C-112.55930176 306.56611328 -111.73188477 306.27285156 -110.87939453 305.97070312 C-108.81640625 305.328125 -108.81640625 305.328125 -106.81640625 305.328125 C-106.81640625 304.008125 -106.81640625 302.688125 -106.81640625 301.328125 C-108.05777344 301.37453125 -109.29914063 301.4209375 -110.578125 301.46875 C-112.22002796 301.50627921 -113.86195702 301.54267814 -115.50390625 301.578125 C-116.32052734 301.61164063 -117.13714844 301.64515625 -117.97851562 301.6796875 C-118.77451172 301.69257812 -119.57050781 301.70546875 -120.390625 301.71875 C-121.11854248 301.73969727 -121.84645996 301.76064453 -122.59643555 301.78222656 C-125.9505812 301.09612617 -127.49889095 299.83193172 -129.81640625 297.328125 C-130.31492892 294.61411747 -130.49721021 292.53210422 -130.4453125 289.82421875 C-130.44772446 289.10452408 -130.45013641 288.38482941 -130.45262146 287.64332581 C-130.45164434 286.12617466 -130.4382825 284.60898727 -130.41333008 283.09204102 C-130.37895791 280.76911606 -130.39268727 278.44998395 -130.41210938 276.12695312 C-130.40521219 274.65102547 -130.39554094 273.17510763 -130.3828125 271.69921875 C-130.38777237 271.00541611 -130.39273224 270.31161346 -130.39784241 269.5967865 C-130.32008809 266.41741361 -130.23215304 264.75518687 -127.96850586 262.42993164 C-123.65369264 260.22088433 -119.85761858 260.208227 -115.12890625 260.265625 C-114.42701172 260.27013672 -113.72511719 260.27464844 -113.00195312 260.27929688 C-111.27340087 260.29105573 -109.5448926 260.30899046 -107.81640625 260.328125 C-109.95807118 257.97212646 -111.8907138 256.64532219 -114.79296875 255.35546875 C-115.54578125 255.01322266 -116.29859375 254.67097656 -117.07421875 254.31835938 C-117.85539062 253.97095703 -118.6365625 253.62355469 -119.44140625 253.265625 C-120.99869698 252.57222349 -122.55353258 251.87327308 -124.10546875 251.16796875 C-124.79334473 250.86238037 -125.4812207 250.55679199 -126.18994141 250.24194336 C-127.81640625 249.328125 -127.81640625 249.328125 -128.81640625 247.328125 C-128.09472656 245.09521484 -128.09472656 245.09521484 -126.89453125 242.2890625 C-126.45165771 241.24556641 -126.00878418 240.20207031 -125.55249023 239.12695312 C-125.06208252 237.99708984 -124.5716748 236.86722656 -124.06640625 235.703125 C-123.56633057 234.53974609 -123.06625488 233.37636719 -122.55102539 232.17773438 C-120.98570003 228.55529936 -119.40467222 224.94055485 -117.81640625 221.328125 C-117.33993652 220.24305664 -116.8634668 219.15798828 -116.37255859 218.04003906 C-111.70336636 207.47317911 -106.85570363 197.03320242 -101.31640625 186.890625 C-100.90704834 186.13265625 -100.49769043 185.3746875 -100.07592773 184.59375 C-97.18567219 179.45121365 -97.18567219 179.45121365 -93.81640625 178.328125 C-93.15640625 178.658125 -92.49640625 178.988125 -91.81640625 179.328125 C-91.58953125 178.565 -91.36265625 177.801875 -91.12890625 177.015625 C-89.65687102 172.87990696 -87.79248853 169.03723849 -85.83984375 165.109375 C-84.64038611 162.38475709 -84.64038611 162.38475709 -84.90234375 159.53515625 C-84.78014529 154.97493173 -83.02100523 151.58077502 -81.06640625 147.515625 C-80.71835937 146.74025391 -80.3703125 145.96488281 -80.01171875 145.16601562 C-79.66367187 144.42931641 -79.315625 143.69261719 -78.95703125 142.93359375 C-78.64282227 142.26481201 -78.32861328 141.59603027 -78.00488281 140.90698242 C-76.46011051 138.85479622 -75.26240361 138.88886512 -72.81640625 138.328125 C-71.23170236 136.15060306 -69.88922467 134.09035589 -68.56640625 131.765625 C-68.20289063 131.15009766 -67.839375 130.53457031 -67.46484375 129.90039062 C-66.57079745 128.38286467 -65.69208997 126.85632061 -64.81640625 125.328125 C-65.80640625 125.328125 -66.79640625 125.328125 -67.81640625 125.328125 C-67.18015568 120.43092361 -65.12850937 116.43665308 -62.94140625 112.078125 C-62.58949219 111.3459375 -62.23757813 110.61375 -61.875 109.859375 C-60.93557853 107.97354751 -59.88263153 106.14527158 -58.81640625 104.328125 C-57.82640625 103.998125 -56.83640625 103.668125 -55.81640625 103.328125 C-53.70269787 100.58813266 -52.79281324 99.04277778 -52.90826416 95.54566956 C-52.79835992 91.69600886 -51.75792227 89.46871652 -50.03417969 86.03491211 C-49.73824417 85.43734604 -49.44230865 84.83977997 -49.1374054 84.22410583 C-48.16180488 82.26184439 -47.16926547 80.30872849 -46.17578125 78.35546875 C-45.48945981 76.98640594 -44.80402827 75.61689669 -44.1194458 74.2469635 C-42.68419504 71.38114606 -41.2409943 68.51952948 -39.79150391 65.66088867 C-37.93883675 62.00648364 -36.10203498 58.3443941 -34.27062607 54.67929745 C-32.856467 51.85179737 -31.43605996 49.02747494 -30.01355743 46.20416451 C-29.3343934 44.85534656 -28.65665485 43.50580983 -27.98040009 42.15553093 C-27.03164901 40.2645751 -26.07507785 38.37778561 -25.11621094 36.49194336 C-24.57438171 35.41972031 -24.03255249 34.34749725 -23.4743042 33.24278259 C-21.82248735 30.33881584 -19.93544846 27.90222222 -17.81640625 25.328125 C-16.97673434 23.35655998 -16.97673434 23.35655998 -16.50390625 21.328125 C-14.04379119 13.25459821 -9.79669242 -0.10754389 0 0 Z " fill="#000000" transform="translate(396.81640625,634.671875)"/></svg>