<?xml version="1.0" encoding="UTF-8"?>
<svg version="1.1" xmlns="http://www.w3.org/2000/svg" width="612" height="535">
<path d="M0 0 C3.75622593 0.5075981 5.55140767 1.10544843 8 4 C15.41202419 19.09995077 15.56559225 35.5912987 15 52 C14.34 52 13.68 52 13 52 C13 56.29 13 60.58 13 65 C14.175625 65.226875 15.35125 65.45375 16.5625 65.6875 C22.07864385 66.88741236 27.28578751 68.81602982 32.5703125 70.78125 C44.23021941 74.40370522 57.34539097 74.52092719 69.45347404 75.41613579 C72.28430035 75.62624905 75.11454195 75.84308559 77.94471741 76.06178284 C85.97908858 76.68205343 94.01395647 77.29523704 102.05004883 77.89282227 C106.99591991 78.26108588 111.94079356 78.64088265 116.8852253 79.02797127 C118.7566809 79.17223331 120.6284754 79.31217079 122.50059319 79.44756889 C125.11585819 79.63704994 127.72960687 79.84121418 130.34350586 80.04858398 C131.10469223 80.10011124 131.8658786 80.15163849 132.65013123 80.20472717 C137.89547254 80.64198541 142.19137554 81.81565748 147 84 C151.11891297 90.17836945 149.61945283 100.31654226 148.41796875 107.4609375 C146.85849506 112.77311727 146.85849506 112.77311727 145 115 C139.04890586 117.62599017 132.61947936 118.81030589 126.25195312 119.9453125 C125.32209595 120.11649597 124.39223877 120.28767944 123.4342041 120.46405029 C120.3843199 121.02392117 117.33284427 121.5745332 114.28125 122.125 C112.13755303 122.51653402 109.9939593 122.90863366 107.85046387 123.30126953 C102.21597231 124.33174184 96.58007115 125.35429348 90.94384766 126.37524414 C85.25852888 127.40663013 79.57466226 128.44595439 73.890625 129.484375 C66.48505418 130.83600135 59.07935517 132.18692277 51.67229462 133.53036499 C49.77285614 133.87508178 47.87362347 134.2209349 45.974617 134.56802368 C41.64917558 135.35548875 37.32290301 136.11864212 32.98217773 136.81738281 C32.20289665 136.94557404 31.42361557 137.07376526 30.62071991 137.20584106 C29.18965152 137.43952042 27.75719668 137.66494736 26.32318878 137.87985229 C22.29548488 138.54365332 19.30503014 139.58398052 16 142 C14.90054287 144.19891427 14.75623523 145.66422292 14.55102539 148.10400391 C14.4774733 148.95314362 14.4039212 149.80228333 14.32814026 150.67715454 C14.21405067 152.06286148 14.21405067 152.06286148 14.09765625 153.4765625 C14.01503036 154.43460785 13.93240448 155.3926532 13.84727478 156.37973022 C13.58181326 159.46117017 13.32165742 162.5430239 13.0625 165.625 C11.95153734 178.78806466 10.78411653 191.90852283 9 205 C10.61841797 205.24907104 10.61841797 205.24907104 12.26953125 205.50317383 C16.3039451 206.12639052 20.33651821 206.76089605 24.36865234 207.39868164 C26.10808525 207.67223321 27.8479914 207.94279409 29.58837891 208.21020508 C32.1019164 208.59695855 34.61350838 208.99473304 37.125 209.39453125 C37.89303955 209.51029007 38.6610791 209.62604889 39.45239258 209.74531555 C44.61522496 210.58163455 49.1934948 211.91086964 54 214 C56.5497484 219.0994968 54.82215946 225.76137152 53.73046875 231.1171875 C53 233 53 233 50 235 C47.54267283 235.37742961 45.16347804 235.65360929 42.69140625 235.8515625 C41.96944565 235.91532074 41.24748505 235.97907898 40.50364685 236.04476929 C38.9716152 236.17816516 37.43921104 236.30734011 35.90649414 236.43261719 C33.60135403 236.62181106 31.29784205 236.82535467 28.99414062 237.03125 C20.64516072 237.75524591 12.38843921 238.20198358 4 238 C4.01160156 239.26457031 4.02320313 240.52914062 4.03515625 241.83203125 C4.04453566 243.49218602 4.0536357 245.15234239 4.0625 246.8125 C4.07087891 247.64587891 4.07925781 248.47925781 4.08789062 249.33789062 C4.09111328 250.14033203 4.09433594 250.94277344 4.09765625 251.76953125 C4.10289307 252.50792236 4.10812988 253.24631348 4.11352539 254.00708008 C4 256 4 256 3 259 C2.34 259 1.68 259 1 259 C-0.17426264 256.65147472 -0.11508173 255.26225935 -0.09765625 252.6484375 C-0.09443359 251.79765625 -0.09121094 250.946875 -0.08789062 250.0703125 C-0.07951172 249.18085938 -0.07113281 248.29140625 -0.0625 247.375 C-0.05798828 246.4778125 -0.05347656 245.580625 -0.04882812 244.65625 C-0.03702591 242.43743352 -0.02056155 240.21874982 0 238 C-0.70745361 238.01015137 -1.41490723 238.02030273 -2.14379883 238.03076172 C-10.03039128 238.093644 -17.82500477 237.71722842 -25.6875 237.125 C-26.84572266 237.04636719 -28.00394531 236.96773437 -29.19726562 236.88671875 C-35.63061897 236.41179772 -41.79815671 235.82670153 -48 234 C-50.03120707 230.95318939 -50.24659875 230.39881676 -50.1953125 226.98828125 C-50.18886719 226.23095703 -50.18242187 225.47363281 -50.17578125 224.69335938 C-50.15064453 223.51483398 -50.15064453 223.51483398 -50.125 222.3125 C-50.11597656 221.51521484 -50.10695313 220.71792969 -50.09765625 219.89648438 C-50.07411585 217.930861 -50.03824547 215.96539225 -50 214 C-43.22268522 210.51975727 -36.08824141 209.58890071 -28.625 208.375 C-27.34882813 208.1584375 -26.07265625 207.941875 -24.7578125 207.71875 C-18.18341582 206.6184894 -11.63417613 205.65040942 -5 205 C-5.11069824 204.00484375 -5.22139648 203.0096875 -5.33544922 201.984375 C-5.85266465 197.32335748 -6.36490737 192.66180208 -6.875 188 C-6.96681549 187.16131378 -7.05863098 186.32262756 -7.15322876 185.45852661 C-8.40436184 173.98630039 -9.55341331 162.51985625 -10.40380859 151.00976562 C-10.47035645 150.12869141 -10.5369043 149.24761719 -10.60546875 148.33984375 C-10.68510864 147.21630493 -10.68510864 147.21630493 -10.76635742 146.07006836 C-11.00281623 143.97504829 -11.47115319 142.03806597 -12 140 C-27.53487495 137.09534632 -43.08095883 134.25579048 -58.63327789 131.44631195 C-64.79788846 130.33193628 -70.96180487 129.2137255 -77.1257515 128.09568405 C-82.44001527 127.13210115 -87.75471253 126.17103018 -93.0703125 125.21484375 C-98.29610318 124.27466828 -103.5206879 123.3280378 -108.74451828 122.37703323 C-110.71274282 122.01989638 -112.68138788 121.66506837 -114.65047073 121.31269455 C-117.39134452 120.82186308 -120.13059487 120.32275929 -122.86962891 119.82177734 C-123.66447189 119.68145584 -124.45931488 119.54113434 -125.27824402 119.39656067 C-139.8135296 116.70555121 -139.8135296 116.70555121 -143 112.125 C-144.79630177 106.51155697 -145.20957095 101.35210434 -145.25 95.5 C-145.270625 94.75363281 -145.29125 94.00726563 -145.3125 93.23828125 C-145.31765625 92.50996094 -145.3228125 91.78164062 -145.328125 91.03125 C-145.3374707 90.37705078 -145.34681641 89.72285156 -145.35644531 89.04882812 C-144.83779206 86.06763764 -143.91065111 84.35288337 -142 82 C-139.15405273 81.14233398 -139.15405273 81.14233398 -135.49609375 80.80859375 C-134.80648056 80.74071152 -134.11686737 80.67282928 -133.40635681 80.60289001 C-130.93924297 80.37207248 -128.47106731 80.18363407 -126 80 C-125.03636536 79.92420715 -124.07273071 79.84841431 -123.07989502 79.77032471 C-116.30365133 79.24141533 -109.52429893 78.76872368 -102.74282837 78.31234741 C-96.49928141 77.88849011 -90.25759673 77.43854303 -84.015625 76.9921875 C-70.77258174 76.04702368 -70.77258174 76.04702368 -64.51757812 75.63769531 C-48.190806 74.56516025 -33.34123639 72.76269143 -18.01464844 66.69042969 C-15.02441471 65.66566224 -12.13966418 65.3081368 -9 65 C-9 60.71 -9 56.42 -9 52 C-9.66 52 -10.32 52 -11 52 C-12.44304017 39.60867676 -11.5160609 28.99276587 -8 17 C-7.67 16.67 -7.34 16.34 -7 16 C-6.72986562 14.44085483 -6.48392925 12.87748669 -6.25 11.3125 C-5.29364223 6.18495105 -3.65509301 3.65509301 0 0 Z " fill="#020202" transform="translate(304,138)"/>
</svg>
