<svg xmlns="http://www.w3.org/2000/svg" version="1.1" viewBox="771.16 378.66 203.71 184.34"><path xmlns="http://www.w3.org/2000/svg" d="M0 0 C5.21951353 0.45092989 9.65678278 2.37309648 14.4921875 4.3125 C15.46671875 4.6940625 16.44125 5.075625 17.4453125 5.46875 C19.83964182 6.40770267 22.2299044 7.35580568 24.6171875 8.3125 C24.42962891 9.52873047 24.42962891 9.52873047 24.23828125 10.76953125 C24.01584715 14.83486931 24.17205475 17.47412717 25.6171875 21.3125 C28.88406643 24.26421901 32.68958283 26.32616565 36.62084961 28.26879883 C38.91523058 29.47472333 40.77399163 30.48470688 42.6171875 32.3125 C43.32191285 35.42922789 43.13852938 38.17672514 42.6171875 41.3125 C44.9271875 41.3125 47.2371875 41.3125 49.6171875 41.3125 C49.6171875 39.9925 49.6171875 38.6725 49.6171875 37.3125 C53.9071875 36.6525 58.1971875 35.9925 62.6171875 35.3125 C62.9471875 33.9925 63.2771875 32.6725 63.6171875 31.3125 C65.93998056 28.30342717 69.00607753 26.91775888 72.3671875 25.25 C73.37265625 24.74339844 74.378125 24.23679687 75.4140625 23.71484375 C87.29069614 18.51519561 101.51450996 18.69054394 113.6171875 23.3125 C118.30424898 25.65923666 123.25355521 28.18587125 126.6171875 32.3125 C126.6171875 33.3025 126.6171875 34.2925 126.6171875 35.3125 C127.8340625 35.456875 129.0509375 35.60125 130.3046875 35.75 C133.44389127 36.14030953 136.5247009 36.63601856 139.6171875 37.3125 C139.6171875 38.6325 139.6171875 39.9525 139.6171875 41.3125 C141.9271875 41.3125 144.2371875 41.3125 146.6171875 41.3125 C146.5251001 40.72662109 146.4330127 40.14074219 146.33813477 39.53710938 C146.10238305 36.95100052 146.0804399 34.85927481 146.6171875 32.3125 C148.87265576 29.78316935 151.57450652 28.37222089 154.5546875 26.8125 C155.30943359 26.38453125 156.06417969 25.9565625 156.84179688 25.515625 C158.23068608 24.72838018 159.62776078 23.95528908 161.03491211 23.20117188 C162.60882431 22.41094917 162.60882431 22.41094917 163.6171875 21.3125 C163.85200443 19.12957226 164.03082073 16.94046826 164.1796875 14.75 C164.26347656 13.55246094 164.34726562 12.35492188 164.43359375 11.12109375 C164.49417969 10.19425781 164.55476562 9.26742188 164.6171875 8.3125 C167.98577485 6.96255186 171.36296695 5.63558106 174.7421875 4.3125 C176.16917969 3.74015625 176.16917969 3.74015625 177.625 3.15625 C186.62204466 -0.3426007 186.62204466 -0.3426007 191.6171875 0.3125 C192.6171875 1.3125 192.6171875 1.3125 192.73744202 3.29298401 C192.73522141 4.16124313 192.73300079 5.02950226 192.73071289 5.92407227 C192.73063736 6.90501358 192.73056183 7.8859549 192.73048401 8.8966217 C192.72532272 9.9632756 192.72016144 11.0299295 192.71484375 12.12890625 C192.71272133 13.75819313 192.71272133 13.75819313 192.71055603 15.4203949 C192.70493798 18.90529075 192.69238242 22.39012342 192.6796875 25.875 C192.67467483 28.23111887 192.67011152 30.58723874 192.66601562 32.94335938 C192.65496269 38.73309464 192.63820701 44.52279281 192.6171875 50.3125 C193.2771875 50.3125 193.9371875 50.3125 194.6171875 50.3125 C194.98121119 51.74753555 195.33305341 53.18566506 195.6796875 54.625 C195.87691406 55.42550781 196.07414063 56.22601563 196.27734375 57.05078125 C196.6171875 59.3125 196.6171875 59.3125 195.6171875 62.3125 C194.9571875 62.3125 194.2971875 62.3125 193.6171875 62.3125 C193.2871875 102.5725 192.9571875 142.8325 192.6171875 184.3125 C189.30863492 183.48536185 187.14951916 182.6695953 184.2109375 181.09765625 C183.38464844 180.65873047 182.55835938 180.21980469 181.70703125 179.76757812 C180.85238281 179.30802734 179.99773437 178.84847656 179.1171875 178.375 C177.41941676 177.46977834 175.72150508 176.56482096 174.0234375 175.66015625 C173.27384766 175.25804932 172.52425781 174.85594238 171.75195312 174.44165039 C169.72136393 173.36760247 167.67603768 172.33114119 165.6171875 171.3125 C165.6171875 169.9925 165.6171875 168.6725 165.6171875 167.3125 C164.94300781 167.06757812 164.26882813 166.82265625 163.57421875 166.5703125 C159.97628036 165.03988164 156.67842687 163.15406692 153.3046875 161.1875 C152.65951172 160.81496094 152.01433594 160.44242188 151.34960938 160.05859375 C149.77042805 159.14617787 148.19356886 158.22974491 146.6171875 157.3125 C146.6171875 156.3225 146.6171875 155.3325 146.6171875 154.3125 C145.76898437 154.83199219 144.92078125 155.35148438 144.046875 155.88671875 C132.87290397 162.58659833 121.60673106 167.3072018 108.6171875 169.3125 C108.6171875 169.9725 108.6171875 170.6325 108.6171875 171.3125 C99.3771875 171.3125 90.1371875 171.3125 80.6171875 171.3125 C80.6171875 170.6525 80.6171875 169.9925 80.6171875 169.3125 C79.5653125 169.250625 78.5134375 169.18875 77.4296875 169.125 C65.58639932 167.60556232 52.50462468 160.90412479 42.6171875 154.3125 C42.47772705 155.23494507 42.47772705 155.23494507 42.33544922 156.17602539 C41.43106767 158.86611477 40.62158273 159.24282043 38.125 160.49609375 C37.06732422 161.05200195 37.06732422 161.05200195 35.98828125 161.61914062 C35.24707031 161.99232422 34.50585938 162.36550781 33.7421875 162.75 C32.28009158 163.48618714 30.82407777 164.23460206 29.375 164.99609375 C28.40264404 165.48420532 28.40264404 165.48420532 27.41064453 165.98217773 C25.42435623 167.27048815 25.42435623 167.27048815 24.20849609 169.76269531 C22.28652472 172.84233156 20.60769955 173.77911357 17.3984375 175.42578125 C15.87669922 176.2137207 15.87669922 176.2137207 14.32421875 177.01757812 C12.73673828 177.81325195 12.73673828 177.81325195 11.1171875 178.625 C10.05886719 179.17478516 9.00054688 179.72457031 7.91015625 180.29101562 C0.04703028 184.3125 0.04703028 184.3125 -3.3828125 184.3125 C-3.7128125 144.0525 -4.0428125 103.7925 -4.3828125 62.3125 C-5.0428125 62.3125 -5.7028125 62.3125 -6.3828125 62.3125 C-7.5078125 56.6875 -7.5078125 56.6875 -6.3828125 53.3125 C-5.7228125 53.3125 -5.0628125 53.3125 -4.3828125 53.3125 C-4.3673513 52.33864098 -4.3673513 52.33864098 -4.35157776 51.34510803 C-4.24375114 44.61350948 -4.12913469 37.8820513 -4.01049805 31.15063477 C-3.96707244 28.63536504 -3.92540321 26.12006437 -3.88549805 23.60473633 C-3.82797957 19.99811456 -3.76423283 16.39164969 -3.69921875 12.78515625 C-3.68250626 11.65288101 -3.66579376 10.52060577 -3.64857483 9.35401917 C-3.62862961 8.31301559 -3.60868439 7.27201202 -3.58813477 6.19946289 C-3.57259048 5.27790909 -3.5570462 4.35635529 -3.54103088 3.40687561 C-3.314227 0.40461683 -2.99480223 0.39276095 0 0 Z " fill="#010101" transform="translate(778.3828125,378.6875)"/></svg>