<svg xmlns="http://www.w3.org/2000/svg" version="1.1" viewBox="777.86 88 182.27 188.03"><path xmlns="http://www.w3.org/2000/svg" d="M0 0 C1.65 0 3.3 0 5 0 C6.56998834 3.13997668 6.12944545 6.49176361 6.11352539 9.93798828 C6.11367142 10.75758026 6.11381744 11.57717224 6.1139679 12.42160034 C6.11326974 15.1378644 6.10548188 17.85406038 6.09765625 20.5703125 C6.09579173 22.45075442 6.09436798 24.33119683 6.09336853 26.2116394 C6.08954607 31.16661922 6.07971808 36.12156983 6.06866455 41.07653809 C6.05844461 46.13044845 6.05386966 51.18436353 6.04882812 56.23828125 C6.03809559 66.15886701 6.0210224 76.07943108 6 86 C8.35032196 86.02387268 10.70039499 86.04110225 13.05078125 86.0546875 C15.01398315 86.06991455 15.01398315 86.06991455 17.0168457 86.08544922 C22.05199909 85.97743183 26.90767049 85.31440394 31.8828125 84.578125 C36.76082504 83.865688 41.65810851 83.36727065 46.5625 82.875 C47.40772217 82.78750488 48.25294434 82.70000977 49.1237793 82.60986328 C53.43615151 82.1814277 57.65959089 81.90151422 62 82 C62.33 80.35 62.66 78.7 63 77 C63.99 76.67 64.98 76.34 66 76 C66 74.68 66 73.36 66 72 C68.15234375 70.3671875 68.15234375 70.3671875 70.9375 68.875 C74.63423076 67.09677642 74.63423076 67.09677642 77 64 C77.99 64 78.98 64 80 64 C80 63.34 80 62.68 80 62 C85.94 62 91.88 62 98 62 C98 62.66 98 63.32 98 64 C98.99 64 99.98 64 101 64 C102.03032335 64.96872793 103.02711237 65.97360355 104 67 C105.31494815 67.82184259 106.64958608 68.61283457 108 69.375 C111.44086376 71.48371284 113.38258124 73.19430879 115 77 C115.35446133 78.66230143 115.69080702 80.32868657 116 82 C117.16015625 82.04898438 118.3203125 82.09796875 119.515625 82.1484375 C127.55113263 82.52093877 135.36398375 83.06869702 143.2890625 84.5234375 C150.45980736 85.78400072 157.58631936 86.05764113 164.85546875 86.0234375 C165.54523804 86.02174561 166.23500732 86.02005371 166.94567871 86.01831055 C168.63045784 86.0139326 170.3152306 86.00720843 172 86 C171.99777939 84.95208282 171.99555878 83.90416565 171.99327087 82.82449341 C171.97302917 72.96530101 171.95802288 63.10611281 171.94818783 53.24690437 C171.94296163 48.17777772 171.93586872 43.1086678 171.92456055 38.03955078 C171.91372237 33.15071319 171.90772118 28.26189173 171.90512276 23.37304306 C171.90327019 21.50466533 171.89965279 19.63628852 171.89426994 17.76791763 C171.88704719 15.15792154 171.88600959 12.54799271 171.88647461 9.93798828 C171.88287933 9.1597168 171.87928406 8.38144531 171.87557983 7.57958984 C171.88594784 2.22810432 171.88594784 2.22810432 173 0 C174.65 0 176.3 0 178 0 C178.0154612 1.37063095 178.0154612 1.37063095 178.03123474 2.76895142 C178.12931461 11.39080477 178.23184378 20.01259135 178.33933926 28.63433266 C178.39444423 33.06658139 178.44784391 37.49883686 178.49731445 41.93115234 C178.54514185 46.21058057 178.59749046 50.48993203 178.65294075 54.76926804 C178.6732813 56.3998663 178.69200767 58.03048555 178.70907402 59.66112137 C178.73330276 61.94945075 178.76333065 64.23763746 178.79467773 66.52587891 C178.81022202 67.82715729 178.8257663 69.12843567 178.84178162 70.46914673 C178.98814259 73.73538619 179.42014495 76.78774203 180 80 C180.08959872 82.3346383 180.13061638 84.67145656 180.1328125 87.0078125 C180.13410156 88.32394531 180.13539063 89.64007813 180.13671875 90.99609375 C180.13462402 91.67397949 180.1325293 92.35186523 180.13037109 93.05029297 C180.12499728 95.12605026 180.1303439 97.20159294 180.13671875 99.27734375 C180.13478516 101.24767578 180.13478516 101.24767578 180.1328125 103.2578125 C180.13168457 104.4555127 180.13055664 105.65321289 180.12939453 106.88720703 C180 110 180 110 179.50474548 111.74160767 C178.79357054 114.92363128 178.83347929 117.9877395 178.79467773 121.24707031 C178.78477814 121.96941864 178.77487854 122.69176697 178.76467896 123.43600464 C178.73316516 125.81667842 178.7083467 128.19737213 178.68359375 130.578125 C178.66301547 132.23151154 178.64201877 133.88489291 178.62062073 135.53826904 C178.56549026 139.88488583 178.51604127 144.23154938 178.46777344 148.57824707 C178.41749243 153.0157486 178.36184084 157.45318242 178.30664062 161.890625 C178.19916947 170.5936927 178.09770009 179.29681715 178 188 C176.33388095 188.042721 174.66617115 188.04063832 173 188 C171.24560837 186.24560837 171.88017037 183.94502544 171.87557983 181.60829163 C171.87917511 180.8357756 171.88277039 180.06325958 171.88647461 179.26733398 C171.88632858 178.4576416 171.88618256 177.64794922 171.8860321 176.8137207 C171.88673146 174.12448492 171.8945249 171.43531751 171.90234375 168.74609375 C171.90420785 166.88664284 171.90563179 165.02719144 171.90663147 163.16773987 C171.91045729 158.26370904 171.92028812 153.35970764 171.93133545 148.45568848 C171.94154819 143.45548908 171.94612879 138.45528494 171.95117188 133.45507812 C171.96191033 123.63670579 171.97898752 113.81835534 172 104 C171.03615387 104.08727859 170.07230774 104.17455719 169.07925415 104.26448059 C165.44208489 104.59323067 161.80465419 104.91900979 158.16714478 105.24397278 C156.60428916 105.38399301 155.04150184 105.5247781 153.47879028 105.66639709 C141.32788912 106.76679448 129.19622737 107.59345909 117 108 C116.74347656 108.92554688 116.48695313 109.85109375 116.22265625 110.8046875 C114.96855535 114.08217804 114.19325774 115.11139831 111.4375 117.125 C108.58598616 119.22361933 107.5542361 120.46199969 107 124 C105.68 124 104.36 124 103 124 C102.34 125.65 101.68 127.3 101 129 C93.08 129 85.16 129 77 129 C76.67 127.02 76.34 125.04 76 123 C74.35 123.33 72.7 123.66 71 124 C70.90589844 123.40058594 70.81179688 122.80117187 70.71484375 122.18359375 C69.64150002 118.90490989 67.37846669 117.67404915 64.69140625 115.66015625 C62.63165096 113.63845648 61.99977808 111.67890304 61 109 C59.96593018 108.91435791 58.93186035 108.82871582 57.86645508 108.74047852 C54.01773868 108.42095763 50.16934897 108.09763965 46.32104492 107.77319336 C44.65771976 107.63349023 42.99430859 107.49480704 41.33081055 107.35717773 C38.93514865 107.15879258 36.5398234 106.95670112 34.14453125 106.75390625 C33.4047554 106.6934462 32.66497955 106.63298615 31.90278625 106.57069397 C28.17506582 106.2514048 24.68340377 105.73668075 21 105 C16.05 104.67 11.1 104.34 6 104 C6 131.72 6 159.44 6 188 C4.02 188 2.04 188 0 188 C-0.01030746 187.08180481 -0.02061493 186.16360962 -0.03123474 185.21759033 C-0.12920071 176.56568023 -0.23171398 167.91383855 -0.33933926 159.262043 C-0.39451028 154.8140432 -0.44792096 150.36603676 -0.49731445 145.91796875 C-0.54504388 141.62558058 -0.59738975 137.3332713 -0.65294075 133.04097748 C-0.67332544 131.40314447 -0.69204489 129.76528986 -0.70907402 128.12741852 C-0.73320416 125.83388973 -0.76324675 123.54050906 -0.79467773 121.24707031 C-0.81022202 119.94135071 -0.8257663 118.6356311 -0.84178162 117.29034424 C-0.96978871 114.6282807 -1.27999396 112.5319669 -2 110 C-2.09335866 107.75410773 -2.13069561 105.50564333 -2.1328125 103.2578125 C-2.13474609 101.28748047 -2.13474609 101.28748047 -2.13671875 99.27734375 C-2.13462402 98.59526855 -2.1325293 97.91319336 -2.13037109 97.21044922 C-2.12503586 95.13892227 -2.13031757 93.06761384 -2.13671875 90.99609375 C-2.13542969 89.67996094 -2.13414062 88.36382812 -2.1328125 87.0078125 C-2.13168457 85.80785645 -2.13055664 84.60790039 -2.12939453 83.37158203 C-2 80 -2 80 -1.50474548 77.25640869 C-0.94446838 73.641733 -0.83837116 70.18364319 -0.79467773 66.52587891 C-0.78477814 65.80323853 -0.77487854 65.08059814 -0.76467896 64.33605957 C-0.73329077 61.96625964 -0.70839706 59.59643971 -0.68359375 57.2265625 C-0.66300459 55.57603457 -0.64200762 53.92551168 -0.62062073 52.2749939 C-0.5656026 47.94484557 -0.51610454 43.61465127 -0.46777344 39.28442383 C-0.41740988 34.8601475 -0.36180158 30.4359374 -0.30664062 26.01171875 C-0.19930708 17.34120194 -0.09780774 8.67062948 0 0 Z " fill="#030303" transform="translate(780,88)"/></svg>