<?xml version="1.0" encoding="UTF-8"?>
<svg version="1.1" xmlns="http://www.w3.org/2000/svg" width="200" height="200">
<path d="M0 0 C1.98 0 3.96 0 6 0 C9.52364809 12.58445747 10.37078189 25.52134908 11.03515625 38.51171875 C11.11898913 40.05722736 11.20342875 41.60270317 11.28843689 43.14814758 C11.50866314 47.17617277 11.72194458 51.20453238 11.93328857 55.23303223 C12.27309602 61.68792915 12.62361908 68.142252 12.97427177 74.59656715 C13.09443108 76.82685608 13.21154921 79.05728756 13.32814026 81.2877655 C13.73079846 88.87763534 14.25313796 96.43560696 15 104 C18.96 104 22.92 104 27 104 C27 105.98 27 107.96 27 110 C38.88 110.33 50.76 110.66 63 111 C62.505 106.545 62.505 106.545 62 102 C62.66 102 63.32 102 64 102 C64.02467081 95.91276345 64.04284604 89.82555583 64.05493164 83.73828125 C64.05996852 81.66633599 64.06679825 79.5943943 64.07543945 77.52246094 C64.08753321 74.54881918 64.09323467 71.57522431 64.09765625 68.6015625 C64.10281754 67.67131256 64.10797882 66.74106262 64.11329651 65.78262329 C64.11337204 64.92188202 64.11344757 64.06114075 64.11352539 63.17431641 C64.115746 62.41486725 64.11796661 61.65541809 64.12025452 60.87295532 C64.11601039 58.90786639 64.11601039 58.90786639 63 57 C63.24853863 54.61745728 63.57163429 52.24236637 63.9375 49.875 C64.22947266 47.95300781 64.22947266 47.95300781 64.52734375 45.9921875 C64.76130859 44.51105469 64.76130859 44.51105469 65 43 C65.66 43 66.32 43 67 43 C67 45.97 67 48.94 67 52 C67.66 52 68.32 52 69 52 C69.04254356 53.99954746 69.04080783 56.00041636 69 58 C68.67 58.33 68.34 58.66 68 59 C67.90731001 60.35094982 67.88252674 61.70667091 67.88647461 63.06079102 C67.88655014 63.92160782 67.88662567 64.78242462 67.88670349 65.66932678 C67.89186478 66.60473801 67.89702606 67.54014923 67.90234375 68.50390625 C67.9037587 69.45692123 67.90517365 70.40993622 67.90663147 71.39183044 C67.91224848 74.44875165 67.92480384 77.50560077 67.9375 80.5625 C67.94251281 82.62955624 67.94707609 84.69661362 67.95117188 86.76367188 C67.96222344 91.84247588 67.97949945 96.9212257 68 102 C68.66 102 69.32 102 70 102 C70.22819748 106.14498616 70.42892125 110.29088017 70.625 114.4375 C70.68945312 115.60216797 70.75390625 116.76683594 70.8203125 117.96679688 C71.12543961 124.73680469 70.83096379 130.46583533 69 137 C67.35 137 65.7 137 64 137 C63.67 136.34 63.34 135.68 63 135 C61.82824219 135.26554688 60.65648437 135.53109375 59.44921875 135.8046875 C50.99359895 137.70931721 42.55159142 139.56845606 34 141 C34 140.34 34 139.68 34 139 C30.7 139 27.4 139 24 139 C24.01160156 140.55332031 24.02320312 142.10664063 24.03515625 143.70703125 C24.04453484 145.7421863 24.05363497 147.77734265 24.0625 149.8125 C24.07087891 150.83666016 24.07925781 151.86082031 24.08789062 152.91601562 C24.09111328 153.89892578 24.09433594 154.88183594 24.09765625 155.89453125 C24.10289307 156.80050049 24.10812988 157.70646973 24.11352539 158.63989258 C24 161 24 161 23 164 C20.03 164 17.06 164 14 164 C14 158.06 14 152.12 14 146 C13.67 146.33 13.34 146.66 13 147 C11.5112814 147.08669432 10.018555 147.10703494 8.52734375 147.09765625 C7.62822266 147.09443359 6.72910156 147.09121094 5.80273438 147.08789062 C4.85720703 147.07951172 3.91167969 147.07113281 2.9375 147.0625 C1.5134082 147.05573242 1.5134082 147.05573242 0.06054688 147.04882812 C-2.29303065 147.0370011 -4.64648477 147.02052025 -7 147 C-6.98839844 147.89203125 -6.97679687 148.7840625 -6.96484375 149.703125 C-6.95582031 150.87359375 -6.94679687 152.0440625 -6.9375 153.25 C-6.92589844 154.41015625 -6.91429687 155.5703125 -6.90234375 156.765625 C-7 160 -7 160 -8 164 C-10.97 164 -13.94 164 -17 164 C-17 156.08 -17 148.16 -17 140 C-18.86011719 140.22558594 -20.72023437 140.45117188 -22.63671875 140.68359375 C-30.14494005 141.26114923 -36.57604059 139.94686578 -43.8125 138.0625 C-44.99392578 137.77181641 -46.17535156 137.48113281 -47.39257812 137.18164062 C-50.26658852 136.47186478 -53.13485299 135.74459817 -56 135 C-56.33 135.99 -56.66 136.98 -57 138 C-58.65 138 -60.3 138 -62 138 C-65.0742764 126.08717896 -64.24432122 114.13213185 -63 102 C-62.34 102 -61.68 102 -61 102 C-61.33 85.83 -61.66 69.66 -62 53 C-61.34 53 -60.68 53 -60 53 C-60 49.7 -60 46.4 -60 43 C-59.34 43 -58.68 43 -58 43 C-56.88697358 55.87814511 -57.0588536 68.59150205 -57.4375 81.5 C-57.49088253 83.49868071 -57.54362094 85.49737873 -57.59570312 87.49609375 C-57.72306441 92.33096033 -57.85906863 97.16551073 -58 102 C-57.34 102 -56.68 102 -56 102 C-56 104.97 -56 107.94 -56 111 C-44.12 110.67 -32.24 110.34 -20 110 C-20 108.35 -20 106.7 -20 105 C-19 104 -19 104 -16.49609375 103.90234375 C-13.6640625 103.93489583 -10.83203125 103.96744792 -8 104 C-7.34488937 94.49064819 -6.75975874 84.98073864 -6.24518204 75.46259689 C-6.00554817 71.06066988 -5.75612376 66.65928243 -5.50869942 62.2577877 C-5.29479328 58.44308221 -5.08410272 54.62825166 -4.88037109 50.81298828 C-3.96669666 33.75146985 -2.8975373 16.86702444 0 0 Z " fill="#000000" transform="translate(96,21)"/>
</svg>
