<?xml version="1.0" encoding="UTF-8"?>
<svg version="1.1" xmlns="http://www.w3.org/2000/svg" width="317" height="368">
<path d="M0 0 C3.49645948 1.10831169 4.39310088 3.51458089 6.0703125 6.65625 C6.78309395 9.33674857 7.3357922 11.81271435 7.7578125 14.53125 C7.87447266 15.20027344 7.99113281 15.86929688 8.11132812 16.55859375 C9.4315785 24.301079 10.21581211 31.9483509 10.46484375 39.79296875 C10.53123472 41.63649281 10.59815651 43.47999781 10.66552734 45.32348633 C10.71782501 46.78789658 10.71782501 46.78789658 10.7711792 48.28189087 C11.88317126 78.78141934 13.89603932 109.21642551 16.0703125 139.65625 C16.15494751 140.84114014 16.23958252 142.02603027 16.32678223 143.24682617 C18.24946347 170.01553487 20.48545537 196.71120679 23.67724609 223.36035156 C24.16575081 227.45650911 24.62221719 231.55549901 25.0703125 235.65625 C25.7303125 235.65625 26.3903125 235.65625 27.0703125 235.65625 C26.9878125 234.769375 26.9053125 233.8825 26.8203125 232.96875 C27.1412683 228.71608567 27.88538322 227.49364589 31.0703125 224.65625 C34.4371626 223.93140492 37.70208659 224.00353191 41.1328125 224.09375 C42.04353516 224.08279297 42.95425781 224.07183594 43.89257812 224.06054688 C50.36747017 224.13211901 50.36747017 224.13211901 53.12890625 226.19140625 C54.0703125 228.65625 54.0703125 228.65625 55.0703125 236.65625 C80.1503125 236.32625 105.2303125 235.99625 131.0703125 235.65625 C131.0703125 233.34625 131.0703125 231.03625 131.0703125 228.65625 C131.7303125 227.66625 132.3903125 226.67625 133.0703125 225.65625 C133.7303125 225.65625 134.3903125 225.65625 135.0703125 225.65625 C135.11663432 214.90349529 135.15218095 204.15076428 135.17393684 193.39793015 C135.18437809 188.40506213 135.19854357 183.41226234 135.22119141 178.41943359 C135.24290755 173.60190408 135.25487856 168.78444022 135.26006699 163.96686554 C135.26376494 162.12804379 135.27098604 160.28922566 135.28177261 158.45043182 C135.29627117 155.87670601 135.29829113 153.30325221 135.29736328 150.72949219 C135.30455383 149.96776199 135.31174438 149.2060318 135.31915283 148.42121887 C135.30430361 144.61957391 135.04397327 141.92886029 133.0703125 138.65625 C133.3203125 136.84375 133.3203125 136.84375 134.0703125 134.65625 C135.83133667 129.27761803 136.46326644 124.36036983 136.6953125 118.71875 C136.73398437 117.93951172 136.77265625 117.16027344 136.8125 116.35742188 C136.90575377 114.45737621 136.98907212 112.55684722 137.0703125 110.65625 C138.3903125 110.65625 139.7103125 110.65625 141.0703125 110.65625 C142.17321708 114.15160912 142.0748563 117.26175112 141.9453125 120.90625 C141.89410517 125.05869904 142.01432208 128.3187433 143.6328125 132.15625 C145.09741241 135.72223238 145.36461532 137.09691725 144.0703125 140.65625 C143.7403125 140.98625 143.4103125 141.31625 143.0703125 141.65625 C142.97521691 144.27313441 142.9447525 146.863539 142.95678711 149.48071289 C142.95656807 150.70988182 142.95656807 150.70988182 142.9563446 151.96388245 C142.95704398 154.68558353 142.96483749 157.40721705 142.97265625 160.12890625 C142.97452034 162.01077741 142.97594429 163.89264906 142.97694397 165.77452087 C142.98076983 170.73773529 142.99060069 175.70092064 143.00164795 180.66412354 C143.0118606 185.72464606 143.01644128 190.78517327 143.02148438 195.84570312 C143.0322229 205.78256488 143.04930014 215.71940503 143.0703125 225.65625 C144.3903125 226.31625 145.7103125 226.97625 147.0703125 227.65625 C147.06507568 228.45844971 147.05983887 229.26064941 147.05444336 230.0871582 C147.03368353 233.71434753 147.02065548 237.34152437 147.0078125 240.96875 C146.99943359 242.23138672 146.99105469 243.49402344 146.98242188 244.79492188 C146.97919922 246.00341797 146.97597656 247.21191406 146.97265625 248.45703125 C146.96741943 249.57247314 146.96218262 250.68791504 146.95678711 251.8371582 C146.94281996 254.73677062 146.94281996 254.73677062 148.0703125 257.65625 C148.16498615 259.84209749 148.20020164 262.03085867 148.1953125 264.21875 C148.19789063 265.37503906 148.20046875 266.53132813 148.203125 267.72265625 C148.0703125 270.65625 148.0703125 270.65625 147.0703125 272.65625 C146.4103125 272.65625 145.7503125 272.65625 145.0703125 272.65625 C145.10125 274.6053125 145.10125 274.6053125 145.1328125 276.59375 C145.15430704 277.94790633 145.14179449 279.30381083 145.0703125 280.65625 C144.7403125 280.98625 144.4103125 281.31625 144.0703125 281.65625 C144.02381344 283.65570939 144.03258337 285.6566059 144.0703125 287.65625 C144.10804163 289.6558941 144.11681156 291.65679061 144.0703125 293.65625 C143.0703125 294.65625 143.0703125 294.65625 141.2578125 294.7890625 C140.175 294.78519531 140.175 294.78519531 139.0703125 294.78125 C138.3484375 294.78382813 137.6265625 294.78640625 136.8828125 294.7890625 C135.0703125 294.65625 135.0703125 294.65625 134.0703125 293.65625 C133.68913482 289.33623631 134.84550513 285.77121547 136.0703125 281.65625 C135.53558319 281.8013501 135.00085388 281.9464502 134.44992065 282.09594727 C121.02531865 285.73841726 107.59913385 289.37500069 94.17138672 293.00585938 C90.43562641 294.01607761 86.70020131 295.0275083 82.96533203 296.04101562 C78.81407142 297.16741476 74.66112865 298.28745413 70.5078125 299.40625 C69.32364746 299.72851562 68.13948242 300.05078125 66.91943359 300.3828125 C56.38540516 303.20897713 56.38540516 303.20897713 51.0703125 303.65625 C50.7403125 303.32625 50.4103125 302.99625 50.0703125 302.65625 C49.78703768 312.35122605 49.78703768 312.35122605 50.6953125 321.96875 C51.18372317 326.77145493 50.38730306 331.02874207 49.0703125 335.65625 C48.0703125 336.65625 48.0703125 336.65625 44.69140625 336.75390625 C43.29684173 336.74723369 41.90229507 336.73527532 40.5078125 336.71875 C39.44143555 336.71198242 39.44143555 336.71198242 38.35351562 336.70507812 C36.59241237 336.69325864 34.83135214 336.67532263 33.0703125 336.65625 C31.48309079 333.08662077 30.7127189 329.98231894 30.3828125 326.09375 C30.29644531 325.16433594 30.21007812 324.23492187 30.12109375 323.27734375 C30.0703125 320.65625 30.0703125 320.65625 30.54736328 318.77661133 C31.10522839 316.51467928 31.27672418 314.43497443 31.38671875 312.109375 C31.44956055 310.84287109 31.44956055 310.84287109 31.51367188 309.55078125 C31.55298828 308.67808594 31.59230469 307.80539062 31.6328125 306.90625 C31.67599609 306.01808594 31.71917969 305.12992187 31.76367188 304.21484375 C31.86944865 302.02879037 31.97153796 299.84262911 32.0703125 297.65625 C31.0803125 297.65625 30.0903125 297.65625 29.0703125 297.65625 C29.0703125 299.30625 29.0703125 300.95625 29.0703125 302.65625 C28.1421875 302.718125 28.1421875 302.718125 27.1953125 302.78125 C26.1434375 303.214375 26.1434375 303.214375 25.0703125 303.65625 C24.33950984 305.63371603 23.67609503 307.63697489 23.0703125 309.65625 C20.8828242 312.57290107 18.49973075 313.53668844 15.0703125 314.65625 C12.40180055 314.86752939 9.83993485 314.98391497 7.171875 314.9921875 C6.41868988 314.9988443 5.66550476 315.0055011 4.88949585 315.01235962 C3.30102976 315.02245262 1.71252156 315.02717768 0.12402344 315.02685547 C-2.29043356 315.03122421 -4.70305397 315.06756331 -7.1171875 315.10546875 C-8.66666047 315.1113388 -10.21614205 315.11530693 -11.765625 315.1171875 C-12.47939301 315.13155853 -13.19316101 315.14592957 -13.92855835 315.16073608 C-19.4481927 315.11108578 -22.51224522 313.74435326 -26.9296875 310.65625 C-28.6796875 307.53125 -28.6796875 307.53125 -29.9296875 304.65625 C-30.9196875 303.99625 -31.9096875 303.33625 -32.9296875 302.65625 C-33.1171875 300.03125 -33.1171875 300.03125 -32.9296875 297.65625 C-33.9196875 297.65625 -34.9096875 297.65625 -35.9296875 297.65625 C-36.31803189 310.32217674 -36.31803189 310.32217674 -33.9296875 322.65625 C-34.3828125 325.7578125 -34.3828125 325.7578125 -35.1796875 329.28125 C-35.43234375 330.44914062 -35.685 331.61703125 -35.9453125 332.8203125 C-36.27015625 333.75617188 -36.595 334.69203125 -36.9296875 335.65625 C-40.16840882 336.73582377 -42.58996955 336.78951784 -45.9921875 336.78125 C-47.05566406 336.78382813 -48.11914062 336.78640625 -49.21484375 336.7890625 C-51.9296875 336.65625 -51.9296875 336.65625 -53.9296875 335.65625 C-54.30859375 333.4765625 -54.30859375 333.4765625 -54.4921875 330.78125 C-54.70597096 327.78828161 -54.97397707 325.5233813 -55.9296875 322.65625 C-55.5996875 321.66625 -55.2696875 320.67625 -54.9296875 319.65625 C-54.78395692 318.17659074 -54.68305482 316.69221157 -54.61328125 315.20703125 C-54.57138672 314.35947266 -54.52949219 313.51191406 -54.48632812 312.63867188 C-54.44701172 311.75759766 -54.40769531 310.87652344 -54.3671875 309.96875 C-54.32400391 309.07607422 -54.28082031 308.18339844 -54.23632812 307.26367188 C-54.13033397 305.06134892 -54.02826699 302.85891527 -53.9296875 300.65625 C-54.5896875 301.64625 -55.2496875 302.63625 -55.9296875 303.65625 C-65.04065724 302.33097231 -73.7297969 299.82589313 -82.5475769 297.25967407 C-101.21697656 291.83540593 -119.99459202 287.05391777 -138.9296875 282.65625 C-139.2596875 284.63625 -139.5896875 286.61625 -139.9296875 288.65625 C-139.2696875 288.98625 -138.6096875 289.31625 -137.9296875 289.65625 C-138.2596875 291.30625 -138.5896875 292.95625 -138.9296875 294.65625 C-140.40875642 294.68314216 -141.88796233 294.70259621 -143.3671875 294.71875 C-144.19089844 294.73035156 -145.01460937 294.74195313 -145.86328125 294.75390625 C-147.9296875 294.65625 -147.9296875 294.65625 -148.9296875 293.65625 C-149.0546875 291.15625 -149.0546875 291.15625 -148.9296875 288.65625 C-148.5996875 288.32625 -148.2696875 287.99625 -147.9296875 287.65625 C-147.76302083 285.15625 -147.76302083 285.15625 -147.9296875 282.65625 C-148.2596875 282.32625 -148.5896875 281.99625 -148.9296875 281.65625 C-149.00148714 280.13696962 -149.01360757 278.61457518 -148.9921875 277.09375 C-148.98316406 276.26746094 -148.97414062 275.44117188 -148.96484375 274.58984375 C-148.95324219 273.95175781 -148.94164062 273.31367188 -148.9296875 272.65625 C-149.9196875 272.32625 -150.9096875 271.99625 -151.9296875 271.65625 C-152.00377727 265.58734825 -152.05826109 259.51870903 -152.09448242 253.44946289 C-152.10958021 251.38431209 -152.13006024 249.3191934 -152.15600586 247.25415039 C-152.19234545 244.28784261 -152.2094038 241.32195829 -152.22265625 238.35546875 C-152.23814011 237.4303801 -152.25362396 236.50529144 -152.26957703 235.5521698 C-152.26991692 234.26117119 -152.26991692 234.26117119 -152.27026367 232.9440918 C-152.27692551 232.18686325 -152.28358734 231.4296347 -152.29045105 230.64945984 C-151.8308092 228.10994979 -150.95299551 227.21060164 -148.9296875 225.65625 C-148.2696875 225.65625 -147.6096875 225.65625 -146.9296875 225.65625 C-146.9296875 197.60625 -146.9296875 169.55625 -146.9296875 140.65625 C-147.5896875 140.65625 -148.2496875 140.65625 -148.9296875 140.65625 C-149.2596875 139.00625 -149.5896875 137.35625 -149.9296875 135.65625 C-148.9396875 135.32625 -147.9496875 134.99625 -146.9296875 134.65625 C-146.94128906 134.09679687 -146.95289063 133.53734375 -146.96484375 132.9609375 C-147.04892163 125.49001696 -146.53034859 118.10015714 -145.9296875 110.65625 C-144.6096875 110.65625 -143.2896875 110.65625 -141.9296875 110.65625 C-141.16804267 114.9405022 -140.92378828 118.86337603 -141.0546875 123.21875 C-141.11825779 127.86573836 -140.25777274 130.58210083 -137.9296875 134.65625 C-137.6171875 137.40625 -137.6171875 137.40625 -137.9296875 139.65625 C-138.9196875 140.64625 -138.9196875 140.64625 -139.9296875 141.65625 C-140.11768041 144.33688427 -140.18150741 146.91334458 -140.15673828 149.59423828 C-140.15717636 150.82362625 -140.15717636 150.82362625 -140.15762329 152.07785034 C-140.15622694 154.79419443 -140.14065151 157.51026618 -140.125 160.2265625 C-140.12127095 162.10700328 -140.11842347 163.98744599 -140.11642456 165.8678894 C-140.10877957 170.82290998 -140.08912369 175.77781374 -140.0670166 180.73278809 C-140.04657678 185.7866864 -140.03742684 190.84060354 -140.02734375 195.89453125 C-140.00587859 205.81515555 -139.97173224 215.73569307 -139.9296875 225.65625 C-138.9396875 225.98625 -137.9496875 226.31625 -136.9296875 226.65625 C-134.9296875 229.65625 -134.9296875 229.65625 -135.2421875 231.71875 C-135.9296875 233.65625 -135.9296875 233.65625 -136.9296875 235.65625 C-111.1896875 235.98625 -85.4496875 236.31625 -58.9296875 236.65625 C-58.9296875 234.34625 -58.9296875 232.03625 -58.9296875 229.65625 C-57.55859375 226.7578125 -57.55859375 226.7578125 -54.9296875 224.65625 C-51.55793337 223.92800607 -48.30454563 223.95795878 -44.8671875 224.03125 C-43.95646484 224.01191406 -43.04574219 223.99257812 -42.10742188 223.97265625 C-39.60476121 223.99109885 -37.36764039 224.08950623 -34.9296875 224.65625 C-32.09738005 227.74556312 -31.94918835 229.2597328 -31.7421875 233.46875 C-31.835 235.0465625 -31.835 235.0465625 -31.9296875 236.65625 C-31.2696875 236.65625 -30.6096875 236.65625 -29.9296875 236.65625 C-25.9243257 217.31120472 -25.10158721 197.43906703 -23.74054027 177.77424836 C-23.52577422 174.67696011 -23.30877499 171.57982971 -23.09185129 168.48269194 C-22.57821605 161.14795943 -22.06851323 153.81296097 -21.5612793 146.4777832 C-21.04442193 139.00451591 -20.52065511 131.53175595 -19.99343103 124.05921346 C-19.53564751 117.56699187 -19.08250019 111.07445689 -18.63276488 104.58167285 C-18.36649112 100.73823588 -18.09867106 96.89492624 -17.82624626 93.05191994 C-16.64557986 76.36988973 -15.66624173 59.71822555 -15.28761959 42.99634266 C-14.25025671 1.08366971 -14.25025671 1.08366971 0 0 Z " fill="#030303" transform="translate(159.9296875,18.34375)"/>
<path d="M0 0 C1.32 0.66 2.64 1.32 4 2 C3.96519531 3.0621875 3.93039062 4.124375 3.89453125 5.21875 C3.71994763 12.95070208 3.88313326 18.81765489 7 26 C6.62790698 30.37209302 6.62790698 30.37209302 5 32 C4.90490441 34.61688441 4.87444 37.207289 4.88647461 39.82446289 C4.88632858 40.64390884 4.88618256 41.4633548 4.8860321 42.30763245 C4.88673148 45.02933353 4.89452499 47.75096705 4.90234375 50.47265625 C4.90420784 52.35452741 4.90563179 54.23639906 4.90663147 56.11827087 C4.91045733 61.08148529 4.92028819 66.04467064 4.93133545 71.00787354 C4.9415481 76.06839606 4.94612878 81.12892327 4.95117188 86.18945312 C4.9619104 96.12631488 4.97898764 106.06315503 5 116 C5.66 116.33 6.32 116.66 7 117 C6.01 117 5.02 117 4 117 C3.24370997 88.32735553 2.8507431 59.68258281 3 31 C2.01 31 1.02 31 0 31 C-0.66 59.38 -1.32 87.76 -2 117 C-2.99 116.67 -3.98 116.34 -5 116 C-4.34 116 -3.68 116 -3 116 C-2.95367818 105.24724529 -2.91813155 94.49451428 -2.89637566 83.74168015 C-2.88593441 78.74881213 -2.87176893 73.75601234 -2.84912109 68.76318359 C-2.82740495 63.94565408 -2.81543394 59.12819022 -2.81024551 54.31061554 C-2.80654756 52.47179379 -2.79932646 50.63297566 -2.78853989 48.79418182 C-2.77404133 46.22045601 -2.77202137 43.64700221 -2.77294922 41.07324219 C-2.76575867 40.31151199 -2.75856812 39.5497818 -2.75115967 38.76496887 C-2.76600889 34.96332391 -3.02633923 32.27261029 -5 29 C-4.75 27.1875 -4.75 27.1875 -4 25 C-2.23700729 19.62933881 -1.63664172 14.7592534 -1.4375 9.125 C-1.12304178 1.12304178 -1.12304178 1.12304178 0 0 Z " fill="#2E2E2E" transform="translate(298,128)"/>
<path d="M0 0 C1.4375 1 1.4375 1 3 3 C3.33 5.64 3.66 8.28 4 11 C29.08 10.67 54.16 10.34 80 10 C80 7.69 80 5.38 80 3 C80.66 2.34 81.32 1.68 82 1 C83 4 83 4 82 7 C81.96125079 8.66621616 81.9549714 10.33394172 82 12 C71.71695462 12.02312376 61.43391538 12.04091525 51.15084934 12.05181217 C46.3765172 12.05704093 41.60220279 12.06413844 36.82788086 12.07543945 C32.22433738 12.0862686 27.62081101 12.09227689 23.01725578 12.09487724 C21.25690377 12.09673144 19.49655274 12.10035196 17.73620796 12.10573006 C15.27927723 12.11294086 12.82241805 12.11399093 10.36547852 12.11352539 C9.63036545 12.11712067 8.89525238 12.12071594 8.13786316 12.12442017 C3.11405216 12.11405216 3.11405216 12.11405216 2 11 C1.60545777 9.15400312 1.25823134 7.29774178 0.9375 5.4375 C0.76089844 4.42558594 0.58429688 3.41367188 0.40234375 2.37109375 C0.26957031 1.58863281 0.13679687 0.80617187 0 0 Z " fill="#2D2D2D" transform="translate(211,244)"/>
<path d="M0 0 C0 0.66 0 1.32 0 2 C0.66 2 1.32 2 2 2 C1.979375 2.804375 1.95875 3.60875 1.9375 4.4375 C1.70366379 6.93354885 1.70366379 6.93354885 3 8 C3.33 6.02 3.66 4.04 4 2 C4.33 2 4.66 2 5 2 C5.19397476 3.97854258 5.38001321 5.9578648 5.5625 7.9375 C5.66691406 9.03964844 5.77132813 10.14179688 5.87890625 11.27734375 C5.91886719 12.17582031 5.95882813 13.07429688 6 14 C5 15 5 15 3.1875 15.1328125 C2.465625 15.13023437 1.74375 15.12765625 1 15.125 C0.278125 15.12757813 -0.44375 15.13015625 -1.1875 15.1328125 C-3 15 -3 15 -4 14 C-4.38021934 9.6908475 -3.2834998 6.0911556 -2 2 C-3.98 2.33 -5.96 2.66 -8 3 C-7 1 -7 1 -5.125 0.375 C-3 0 -3 0 0 0 Z " fill="#0F0F0F" transform="translate(298,298)"/>
<path d="M0 0 C1.32 0.66 2.64 1.32 4 2 C3.96519531 3.0621875 3.93039062 4.124375 3.89453125 5.21875 C3.71994763 12.95070208 3.88313326 18.81765489 7 26 C6.6875 29 6.6875 29 6 31 C4.34506485 28.02111672 3.61509121 25.33906657 3 22 C2.67 21.34 2.34 20.68 2 20 C1.91691362 18.62451844 1.89263984 17.24514204 1.90234375 15.8671875 C1.90556641 15.06152344 1.90878906 14.25585938 1.91210938 13.42578125 C1.92048828 12.58402344 1.92886719 11.74226562 1.9375 10.875 C1.94201172 10.02550781 1.94652344 9.17601562 1.95117188 8.30078125 C1.96297126 6.20049091 1.98090694 4.1002367 2 2 C1.34 2 0.68 2 0 2 C0.01160156 3.27617187 0.02320313 4.55234375 0.03515625 5.8671875 C0.04453417 7.53645687 0.05363437 9.20572783 0.0625 10.875 C0.07087891 11.71675781 0.07925781 12.55851563 0.08789062 13.42578125 C0.09111328 14.23144531 0.09433594 15.03710938 0.09765625 15.8671875 C0.10289307 16.61081543 0.10812988 17.35444336 0.11352539 18.12060547 C0 20 0 20 -1 22 C-1.66 21.67 -2.32 21.34 -3 21 C-2.855625 20.113125 -2.71125 19.22625 -2.5625 18.3125 C-1.85276752 13.46432744 -1.5929486 8.58230131 -1.28125 3.6953125 C-1 1 -1 1 0 0 Z " fill="#3D3D3D" transform="translate(298,128)"/>
<path d="M0 0 C0.66 0 1.32 0 2 0 C2.16768291 2.93744524 2.33418858 5.87494904 2.5 8.8125 C2.54769531 9.64587891 2.59539062 10.47925781 2.64453125 11.33789062 C2.71220703 12.54155273 2.71220703 12.54155273 2.78125 13.76953125 C2.82314453 14.50792236 2.86503906 15.24631348 2.90820312 16.00708008 C2.98479533 17.66990494 3 19.3354121 3 21 C1.02 21.99 1.02 21.99 -1 23 C-1 22.34 -1 21.68 -1 21 C-1.66 20.67 -2.32 20.34 -3 20 C-2.34 20 -1.68 20 -1 20 C-0.67 13.4 -0.34 6.8 0 0 Z " fill="#040404" transform="translate(298,130)"/>
<path d="M0 0 C0.33 0 0.66 0 1 0 C1.19441368 2.2910905 1.38033135 4.58290337 1.5625 6.875 C1.66691406 8.15117187 1.77132812 9.42734375 1.87890625 10.7421875 C2 14 2 14 1 16 C0.77377919 17.70363822 0.59111527 19.41328701 0.4375 21.125 C0.31181641 22.49011719 0.31181641 22.49011719 0.18359375 23.8828125 C0.12300781 24.58148438 0.06242188 25.28015625 0 26 C-0.33 26 -0.66 26 -1 26 C-1.12852505 17.27457699 -0.79645684 8.68991301 0 0 Z " fill="#2A2A2A" transform="translate(141,127)"/>
<path d="M0 0 C0 0.66 0 1.32 0 2 C0.66 2 1.32 2 2 2 C2 2.66 2 3.32 2 4 C1.01 4 0.02 4 -1 4 C-1 5.65 -1 7.3 -1 9 C-1.66 8.67 -2.32 8.34 -3 8 C-2.67 6.02 -2.34 4.04 -2 2 C-3.98 2.33 -5.96 2.66 -8 3 C-7 1 -7 1 -5.125 0.375 C-3 0 -3 0 0 0 Z " fill="#161616" transform="translate(298,298)"/>
<path d="M0 0 C2.21736634 1.10868317 4.03617993 2.49440461 6 4 C3.69 4.33 1.38 4.66 -1 5 C-1.33 4.01 -1.66 3.02 -2 2 C-1.34 2 -0.68 2 0 2 C0 1.34 0 0.68 0 0 Z " fill="#181818" transform="translate(212,317)"/>
<path d="M0 0 C0.33 0 0.66 0 1 0 C1 2.97 1 5.94 1 9 C0.01 8.01 -0.98 7.02 -2 6 C-1.57894737 1.57894737 -1.57894737 1.57894737 0 0 Z " fill="#070707" transform="translate(301,299)"/>
</svg>
