<svg xmlns="http://www.w3.org/2000/svg" version="1.1" viewBox="1185.52 314 148.6 281.68"><path xmlns="http://www.w3.org/2000/svg" d="M0 0 C0.66 0 1.32 0 2 0 C2.495 5.94 2.495 5.94 3 12 C6.3 12 9.6 12 13 12 C13.33 8.04 13.66 4.08 14 0 C14.66 0 15.32 0 16 0 C16.495 6.435 16.495 6.435 17 13 C18.65 13.33 20.3 13.66 22 14 C26.74616548 29.19493281 30.75868799 44.22800227 33 60 C33.15968262 61.05445313 33.31936523 62.10890625 33.48388672 63.1953125 C33.95889387 66.45911799 34.36469103 69.72450059 34.75 73 C34.89735596 74.00933594 35.04471191 75.01867187 35.1965332 76.05859375 C35.8772513 82.86692948 35.8772513 82.86692948 33.43945312 86.015625 C28.91945643 89.70401124 27.18662929 90 21 90 C21 101.22 21 112.44 21 124 C22.65 124.33 24.3 124.66 26 125 C27 126 27 126 27.09765625 128.72265625 C27.08605469 129.82480469 27.07445312 130.92695313 27.0625 132.0625 C27.05347656 133.16722656 27.04445313 134.27195312 27.03515625 135.41015625 C27.02355469 136.26480469 27.01195312 137.11945313 27 138 C25.35 138 23.7 138 22 138 C22.20496094 138.58007812 22.40992188 139.16015625 22.62109375 139.7578125 C22.89050781 140.53898438 23.15992188 141.32015625 23.4375 142.125 C23.70433594 142.89070312 23.97117187 143.65640625 24.24609375 144.4453125 C25 147 25 147 26 153 C35.57 153.33 45.14 153.66 55 154 C54.8818018 146.37149664 54.8818018 146.37149664 54.72973633 138.74365234 C54.67243488 131.40537019 55.64303707 127.11950976 60.125 121.1875 C63.9716149 118.26072779 67.21460683 117.70363685 72 118 C76.17624694 119.67049877 78.48421932 122.31617828 81 126 C82.27599264 129.64122284 82.12021694 133.23590869 82.11352539 137.06347656 C82.11367142 137.76631775 82.11381744 138.46915894 82.1139679 139.19329834 C82.11327299 141.50910563 82.10550038 143.82483181 82.09765625 146.140625 C82.09579057 147.74916541 82.09436737 149.35770638 82.09336853 150.96624756 C82.08955516 155.19455542 82.07973495 159.42282879 82.06866455 163.65112305 C82.05842506 167.96793145 82.05386547 172.28474544 82.04882812 176.6015625 C82.03811162 185.06772414 82.02104937 193.53385778 82 202 C81.34 202 80.68 202 80 202 C80.02363113 202.90122589 80.04726227 203.80245178 80.0716095 204.73098755 C80.29003499 213.23461363 80.48384986 221.73837099 80.65021229 230.24318123 C80.73660011 234.61537116 80.83240826 238.98692633 80.94995117 243.35839844 C81.06309162 247.57915931 81.15121693 251.79977721 81.22220421 256.02145004 C81.25361073 257.6299403 81.29394553 259.23828242 81.34345436 260.84631729 C81.41141186 263.10368913 81.4472471 265.35950854 81.47583008 267.61767578 C81.50469803 268.90118927 81.53356598 270.18470276 81.56330872 271.5071106 C80.81528161 276.14537711 79.31913736 277.73064893 76 281 C73.59643555 281.68115234 73.59643555 281.68115234 71.13671875 281.5859375 C70.25048828 281.56660156 69.36425781 281.54726563 68.45117188 281.52734375 C67.53916016 281.47707031 66.62714844 281.42679688 65.6875 281.375 C64.75615234 281.34792969 63.82480469 281.32085938 62.86523438 281.29296875 C60.57430783 281.2224787 58.28877402 281.118811 56 281 C54.97014272 273.19886015 54.87830954 265.45114696 54.92483521 257.59570312 C54.93775985 255.39321938 54.94415346 253.19079678 54.94897461 250.98828125 C54.96030706 246.32549291 54.97959722 241.66275628 55 237 C55.02362392 231.5655251 55.04396204 226.13107779 55.05593872 220.69656372 C55.06242202 218.52610464 55.0749197 216.3557329 55.08764648 214.18530273 C55.09094971 212.87634033 55.09425293 211.56737793 55.09765625 210.21875 C55.10551147 208.4852832 55.10551147 208.4852832 55.11352539 206.71679688 C55.18711547 204.03299654 55.18711547 204.03299654 54 202 C54 196.72 54 191.44 54 186 C43.44 186 32.88 186 22 186 C22 186.99 22 187.98 22 189 C22.99 189 23.98 189 25 189 C25 191.97 25 194.94 25 198 C24.01 198 23.02 198 22 198 C22 199.65 22 201.3 22 203 C12.76 203 3.52 203 -6 203 C-6 201.35 -6 199.7 -6 198 C-6.99 198 -7.98 198 -9 198 C-9 194.7 -9 191.4 -9 188 C-8.01 188 -7.02 188 -6 188 C-6 187.01 -6 186.02 -6 185 C-16.89 185 -27.78 185 -39 185 C-38.98952637 187.73047607 -38.97905273 190.46095215 -38.96826172 193.27416992 C-38.9351253 202.29467051 -38.91303162 211.31517378 -38.89637566 220.33571911 C-38.88593754 225.80498155 -38.87177771 231.27418164 -38.84912109 236.7434082 C-38.82739388 242.02129543 -38.81543158 247.29912267 -38.81024551 252.57705116 C-38.80654955 254.59088396 -38.79933233 256.60471347 -38.78853989 258.61852074 C-38.7740267 261.4387052 -38.772022 264.25864164 -38.77294922 267.07885742 C-38.76575867 267.91179825 -38.75856812 268.74473907 -38.75115967 269.60292053 C-38.76631185 273.8606839 -39.02840654 277.11519246 -41 281 C-44.06463399 281.16240455 -47.12064274 281.28104814 -50.1875 281.375 C-51.05181641 281.42527344 -51.91613281 281.47554687 -52.80664062 281.52734375 C-54.06831055 281.55634766 -54.06831055 281.55634766 -55.35546875 281.5859375 C-56.51018677 281.63306885 -56.51018677 281.63306885 -57.68823242 281.68115234 C-61.24852935 280.63212621 -63.14436688 278.07942623 -65 275 C-65.56330872 271.5071106 -65.56330872 271.5071106 -65.47583008 267.61767578 C-65.46680664 266.90478897 -65.4577832 266.19190216 -65.44848633 265.45741272 C-65.41293238 263.11889495 -65.34150395 260.78296844 -65.26953125 258.4453125 C-65.23774261 256.81725175 -65.20820904 255.18914554 -65.18083191 253.56100464 C-65.10297057 249.28927822 -64.99459863 245.01885681 -64.87976074 240.74798584 C-64.76786738 236.3844495 -64.68497588 232.02037162 -64.59960938 227.65625 C-64.42804715 219.10337318 -64.22423386 210.55165727 -64 202 C-64.66 202 -65.32 202 -66 202 C-66.09284025 192.47255905 -66.16383586 182.94527477 -66.20724869 173.41747952 C-66.22808885 168.99291905 -66.25634072 164.56866897 -66.30175781 160.14428711 C-66.34534372 155.87136361 -66.36916396 151.59873792 -66.37950897 147.32560921 C-66.38687756 145.69856137 -66.40126678 144.07152912 -66.42292023 142.44460869 C-66.45212497 140.1586014 -66.45594908 137.87381147 -66.45410156 135.58764648 C-66.46742523 133.63905983 -66.46742523 133.63905983 -66.48101807 131.65110779 C-65.78633408 126.37819543 -63.84355004 122.54459598 -59.6875 119.0625 C-56.16469002 117.66976117 -53.7643485 117.53771159 -50 118 C-45.18716214 120.45360361 -42.63411105 123.31713591 -40 128 C-38.99823153 131.11262316 -38.88339501 133.94394098 -38.90234375 137.203125 C-38.90484131 138.08645508 -38.90733887 138.96978516 -38.90991211 139.87988281 C-38.91901611 140.99202148 -38.92812012 142.10416016 -38.9375 143.25 C-38.958125 146.7975 -38.97875 150.345 -39 154 C-29.76 153.67 -20.52 153.34 -11 153 C-10.01 150.03 -9.02 147.06 -8 144 C-7.33333333 142 -6.66666667 140 -6 138 C-7.65 138 -9.3 138 -11 138 C-11 134.04 -11 130.08 -11 126 C-8.525 125.01 -8.525 125.01 -6 124 C-6 113.11 -6 102.22 -6 91 C-7.65 91 -9.3 91 -11 91 C-14.72487171 89.47037055 -16.92705965 87.44795605 -19 84 C-19.74292569 78.2321951 -18.82256194 72.70899635 -18 67 C-17.75165997 64.99621054 -17.50431444 62.99229765 -17.2578125 60.98828125 C-12.40712448 24.11068673 -12.40712448 24.11068673 -5 13 C-3.35 13 -1.7 13 0 13 C0 8.71 0 4.42 0 0 Z " fill="#020202" transform="translate(1252,314)"/></svg>