<?xml version="1.0" standalone="no"?>
<!DOCTYPE svg PUBLIC "-//W3C//DTD SVG 20010904//EN"
 "http://www.w3.org/TR/2001/REC-SVG-20010904/DTD/svg10.dtd">
<svg version="1.0" xmlns="http://www.w3.org/2000/svg"
 width="512.000000pt" height="512.000000pt" viewBox="0 0 512.000000 512.000000"
 preserveAspectRatio="xMidYMid meet">

<g transform="translate(0.000000,512.000000) scale(0.100000,-0.100000)"
fill="#000000" stroke="none">
<path d="M2435 5114 c-137 -14 -267 -41 -382 -79 -602 -198 -997 -700 -1074
-1365 -14 -125 -7 -402 15 -535 58 -364 202 -758 405 -1108 39 -68 83 -180
188 -480 l138 -392 5 -505 5 -505 27 -47 c21 -34 41 -53 80 -72 l52 -26 667 0
667 0 53 28 c43 22 59 38 81 81 l28 53 0 486 0 485 141 405 c115 329 152 422
197 501 196 339 342 739 399 1099 27 168 25 510 -5 665 -81 424 -301 781 -625
1016 -195 141 -458 247 -692 281 -80 11 -311 20 -370 14z m-575 -721 c-126
-394 -157 -874 -94 -1453 17 -162 63 -449 94 -585 31 -141 32 -136 -47 -133
l-68 3 -73 145 c-311 620 -385 1198 -209 1629 56 134 152 276 259 378 41 41
171 143 175 139 1 -1 -15 -56 -37 -123z m1524 -3 c381 -352 468 -908 246
-1580 -54 -164 -127 -338 -203 -485 l-52 -100 -67 -3 c-80 -3 -78 -11 -48 133
117 567 154 1124 104 1545 -24 206 -82 452 -141 607 -8 20 86 -48 161 -117z
m-184 -2577 c0 -5 -35 -108 -77 -230 l-77 -223 -486 0 -485 0 -78 223 c-42
122 -77 225 -77 230 0 9 1280 9 1280 0z"/>
</g>
</svg>
